<mxfile host="65bd71144e">
    <diagram id="-Bn1zn_9udjPQ_ffXdiK" name="Page-1">
        <mxGraphModel dx="422" dy="1310" grid="1" gridSize="10" guides="1" tooltips="1" connect="1" arrows="1" fold="1" page="1" pageScale="1" pageWidth="850" pageHeight="1100" math="0" shadow="0">
            <root>
                <mxCell id="0"/>
                <mxCell id="1" parent="0"/>
                <mxCell id="12" value="" style="shape=ext;double=1;whiteSpace=wrap;html=1;aspect=fixed;" parent="1" vertex="1">
                    <mxGeometry x="14.079999999999998" y="-24.019999999999996" width="320" height="320" as="geometry"/>
                </mxCell>
                <mxCell id="20" value="" style="shape=stencil(rVbZbttADPwavRJccs/nNP2PAHFqoa4dOO71911VWFVLReMW6JuOIXc5HB6DPrwdn14Pg/Db7Xr5fPg+Pt+Og34YRMbz8XAdb/Vp0MdBH14u18On6+Xr+Xl+f32akNPTl8u3ycOP2a4U8mmyEv45f0kU/e8PH2f8aTyv8Z68dniXKbl9gxwpSWegjkreN0iRnOsMfKSc9g2iUMidQawnlH0DX0Psr5QCCQhalTx3BjmQBzGIa/6aQRFIa6Bg8IUSOMCT67PmmIkZ3Iiy2xwA0uYoGnymEvbxTLHPQUmUwX2YXC+jEklBkmt05j6+RbSDV0OokoL7OOKe0IJVKuSCxSP+q4LMfZg84LNGJxs88F+LZuM/A/+JZBNviqCMibPlkwXhfbH5CqhNkI9WDwz0kFqFr/QWFOGt3mrbAvwEKoafQhHw7ymqxSP9KEmw+Az4X9S4wgvAc6vWVbwC8sUbPeCmu3SbBR9axe3V+0Y/CfRobn9XDVQBflHvSs8C69fqh9sU+S94lyj1BZl9k9T7B5TWn5ahVDOGpphYimImBZIIS0abQQgwhljakFsmMW5yqZDrs1D7UgAx1OWAe5m6KgtQxlNWzQmwbVV87kly2L+03w3PzcH7eLXbDcMxM00tNnjEaK2qYv1DfLJz8s59sq3jO/FmyvovfG7Wy0owqIKpC/Z4hWvHau1ZRE2CAl7a7FI1bfL8ZQB39uO7+PrwZxl/GU+neZdf/7fLe/00L/76+As=);lineShape=1;strokeColor=default;" parent="1" vertex="1">
                    <mxGeometry x="72.09956296447444" y="57.61549403303388" width="41.67108268226858" height="36.89147630889506" as="geometry"/>
                </mxCell>
                <mxCell id="21" value="" style="shape=stencil(lVdJcttADHwNrygMMOvZcf7hKssRK4rkkpXt9wHDUNKAYbt8oyj0DNBoLBz04W3/9LobhN8u59PX3c/x+bIf9NMgMh73u/N4sadBHwd9eDmdd1/Op+/H5/n369NkOT19O/2YTvg14wpJnUDCv+cXgbT9ffF5Nj+MxzvzUCk4+0ictwHK1GIHsCs5bQNiIu5viEwq24DUiLkDJKHG24ASPCArVXBDNYB0gCKUQdC1UUsdwI5QAGiVtA/ajqgVABpp6AAtkEQIqKUHGEsgaAO01gMiFZA4A/zj5ArIlBQG3bQHVGIgvlao9rTanYJcMgeyB1R0Q6JQPKChG/Q/LkUUtFARHzSURljEfEcrlEag6BJnUaFMB0rOJSVBLIWVNMJC9FbQniXGLllT6eVt9QABidRVXKVcoDSKekANUK1rlxIuII4+6IJL1LlkvCnQUmD2ncyIC+90AZfqRA1lzgrM9ZlCGdMkLuqK+0xZxdAwTYlyT9MdD1tqklVVo/5t+ufsgyhITR8F1OhLaJoZaGiZXp38bCoBceTs+4bNvQp4TdEXaQ4UQKptLpf+hohrTrJfHjRRBK0syFKS1+VBKAGXgu/3geE6w1RdxS1tZMPcDd0KCeIlQVdCobBXxZzg3sMk/em6jNMNc5csvMJc18DbXphApoSkJx63Ol3G9s1ckNI877jejbfizFFTzH73YtjhPrgxv2tuD7fl/GU8HObd/v5/v8zbq/lDQB//AA==);lineShape=1;strokeColor=default;" parent="1" vertex="1">
                    <mxGeometry x="72.21097643277187" y="60.10520166416916" width="42.56300712181549" height="32.072271469072646" as="geometry"/>
                </mxCell>
                <mxCell id="22" value="" style="shape=stencil(rVbLbtswEPwaXQdLrkguz2n6HwHi1EbdOHDc19+XqkrZpOQpCvQmS7PmPmaGO+jD+/7pbTd4eb+cT5933w/Pl/2gHwbvD6/73flwKU+DPg768HI67z6dT19fn+ffb08Tcnr6cvo2/cOPOS4b0jhFefk5v3Ee0f1+83EOOB5ebwPKZ2sCvCLF+wGm0PYEDfXNZkASJG0Cxogo9wNCQGhPCIaR1KCG7JqA5DDa/QDv6//VAAtw/n5ARGrxOUMCKQFqPd5IjxQ59PhMhuARUo8fSUvdKh+DJ3hB8C0+IpAJSO3Ggh/pANZ4DyX9LPlIixcomVept+2PGSLBl362+VjijENuKW2RzrfwIfb4TOotAsl9Pn9EtK0xpHa+luFI/raaryCT/A3W1psVQvppvankoi9Sr0E6fIJkVq/r+FBOpP231lGKXiLJp7C3rddJoSwRzNKO2wOIgB1SWBVA8FI9+aZBzLAELq4GwAXZNbRURPPRlSBzYvVKO4CJoGRgHq4TWKod+y94l2At45LCM4ceoe0VUC6lTCYQpDrOcu2FytptzYd+BrrY/LYIYvXA5er29AQrtG5t0SlldXY9rXlGBZ+77YOuBhPJ2rFJzXAbP8L3eGHLTcAYezyrN1YR3uRDbLeIsJOlg2f5W+/rnl6T11t9oQQyscXrlrGQtC4u2yqQle4TAiu4HND5Sr3Z7hbQGamjxv7v++vfA8rDdV1+ORyP87Z9+71fr8ureTXXx18=);lineShape=1;strokeColor=default;" parent="1" vertex="1">
                    <mxGeometry x="130.87991280172412" y="62.5862929561622" width="36.671864670562336" height="24.569541513751442" as="geometry"/>
                </mxCell>
                <mxCell id="23" value="" style="shape=stencil(lVbbchsxCP2afWUEEpJ4TtP/yEyceqeunXGcXv6+eLY7Mewubt5kLcfA4YAY8sPb/ul1N1B6u5xP33e/xufLfshfBqLxuN+dx4uehvw45IeX03n37Xx6Pz5Pv1+frpbX04/Tz+s//J5wDahdQZT+TBcJ+nTxdTI/jMcbc+xAbOwFqG7b5wQFjb06SLINKAVKNYDMUGgbwAKYDIAJsG8DGoHYlGsDDDx0ht4NoGsOAUAaNLKADswBoEMvFiDQIoBAzbYMCDlIGpOGbGmSDBQg1IXYJITn2m8BslhAgxR56FAsr3rDgfhkIVb1yZEHrZwN6YaHdYTKT7yLFrlQFtEnIRFNqs4FTRx0hFaWsy9EjzyoFFxIGSRKWj1Y+emNBF2tOZATUwKKOkJZsjloR0RzRuvA6AEpSpq9XHuLWVIxifcQNoSK0yatTZojWsXPPmWpxwBxlaa5z/+7qwvU2EV1XV3ntDZHkwP0cFoqr3XRQf/0uA6okKsHSJC1pii8AMTqq+gBFLXcZwEdIS0GeA1C0ien2VHWKrSAJc7Atg4V5+G2/vJq4ayYCkMLAMSANoeMc5Dr6suQbUiEc9eue/DzHimMaDH4EGcxrtonzykm4GCMpeUuE71Xi15rUAJ61NxGz3eCzzaYMo/MDXM3Ku5R2RyV4ZtDfoFJc1Ova82vLwkwGL0MCZ159CbXeZ37MKeybf7JjfauuR4+lueX8XCYdu/b737Z1qtpUc+PfwE=);lineShape=1;strokeColor=default;" parent="1" vertex="1">
                    <mxGeometry x="132.28675829049712" y="61.38645328886639" width="37.50913695130695" height="26.861751250719276" as="geometry"/>
                </mxCell>
                <mxCell id="24" value="" style="shape=stencil(lVbZctswDPwavWJIgOdzmv5HZuLUnrp2xnHb5O8LVaUsQtZm+qZjQeLYBTDIw9v+6XU3sHu7Xs7fd78Pz9f9IF8G5sNpv7scrvo0yOMgDy/ny+7b5fzz9Dy9vz6NyPHpx/nXeML7ZFcrhTJasfv494V8+Pvh64Q/Hk5LvFAMHZ4DSdk2KLH9bgaiN+RtgyyUuTOIeicwiIXEdwYptyPuGgRH7DqD4qFLzFSkT5KnErcN0iqplZIDHlGtHd47Rw4YCIVsLygeRECuWrxL23hH1ZyfWwo28Bx7fCIGNJqjm/GBAvSHe9ZVpgRYp/4bfzw5gNf89PhSYbyaf7F4BxikBe79L4UKiDfdOR/lUwlv8uMgowvlFaEjiLeSmHoJMeCb4g3fIjmAL1YAyp8MBFbIm/qWxsCNfJr8K/8F4COFlV4q5IPVS203bvAt8sofUC9vW9wYb0X8D8Hms4B+ono0fIif9Adv/FE+QHxKK74BPXpKKz4z8J+t3ke9AH94pUeM96XRZTEyUMOV0AZEM8ieGEQc9bzeJZ1rHoScotV8CHBO5tQkOE9iTxmJUixLNQ1QlbU15fmGVvf7XcLZ3YChKpU0YhwiBhHrkAh9ERxFkFIlcXYGj1Rwa2oLPDo/NdHe8IK6aLZjfp7L9/HFti3fdHEfX1v6bvXygKOKz/35Aa41iy1mXs3IozGjXbPHZ0oo4P/dXj/F68NtVX45HI/Tpr38b1dr/TSt5fL4Bw==);lineShape=1;strokeColor=default;" parent="1" vertex="1">
                    <mxGeometry x="86.0574504920503" y="111.18147222990228" width="33.79966325392455" height="28.548757180241115" as="geometry"/>
                </mxCell>
                <mxCell id="25" value="" style="shape=stencil(rZbdbtswDIWfxreEJEqUdN1271Gg6WI0S4o03c/bj56hxpTjUwzonWPzCyXy8EgD373tH193Q3Bvl/PpZfdrfLrsB74fQhiP+915vOjTwA8D3z2fzrvv59P78Wn+/fo4RU5PP04/p3/4PXOZJE1QcH/mF55C/ffi2xx+GI+LcP2cunihErcBFmJnAGZKZRtIuoBigFgp+W1AEjlvAAlU3TaQMzEbIDP5sA2UTDlaoFIBe6hC1WYokWoCQKEgFhAKYEm19lUqhTyokgIlG6A6igyBajNULSvotAKpWiARZ7jpbLVUM0VU1kzJ9kFzOrQkIVd7ADYu9vKeyoD6wORKD3gBgG/jsti0oCq5ppxFWQV12lEKFmAKYB4mYCUNASage/A2g4qPkZYCeWsCKm9GGZhiB+iUowGKbeQXExdRWYVi7IGMqpT7xumSMpJG6QdIfSTimc6da1QSAHjnyNldXyu9maKTa2xTuwX0+la/R63OK9soOIOsbKNi9akSrFcu6rClpvVUp68EVDuhA/RIAc6UPw7BhZqQf4ujYsuUVeAAiNK7q3ioDfb9zMXUZuS2/KS5dQNChUCgYPXtY5Pj7QTE1ma8Vg1oz7Vp+Yj38NR15K3veX0D47tpK/CMdr1LSjuzN8KTvcZof8FifL/4QAUsJrSD8nrPQ4JeHWuuTcRtsfWddfBcTs0HF+FgMSuHcNBH//NK+2m4Plxvz8/j4TBfvpff+9u2vppv6vzwFw==);lineShape=1;strokeColor=default;" parent="1" vertex="1">
                    <mxGeometry x="85.14966631661548" y="123.98901356371186" width="39.18002804108396" height="23.981930614484636" as="geometry"/>
                </mxCell>
                <mxCell id="26" value="" style="shape=stencil(lVbbUttADP0av2ok7f2Z0v9ghtBkmiZMCG35e9Y1a7Kyfaa8OZuj+9FlcHcv+4fn3aD8cr2cf+7+HB6v+8F9G1QPp/3ucrjWr8HdD+7u6XzZ/bicX0+P0+/nhxE5fv06/x41/J3kSiL1o5Ty2/QiQl7/vXyfBI6H041A9hRyL1DIuW2B5Kj0Apop522ByJRdJ+CVCrDgA0lvoapwsi2giXzsBFJ1KYEYKJYOX3J7WQ+BfB9BKRQZRGBTJMzEQMCRL9ZAjiBiErV4AQEIsdiAGehn0j6AEhtNNvAf0c34mgLAuqrf4B1pQPiPcs54oeRRvMUUjCkAfLXe6881/7DAKVh8AISLpLLQD+qVKIj1P4GWyRTY5qcA/YW42Pyj/BTrfwmk0J/c56fyBzVkZWM/tSo/FTak5UMdWoA/gfwCj/i5mHEjHvivFILFe4AXcot4Pewv638iAfzkRT5DmzBbeBOvg/znNv5mvDaGbMQbjD9MBej/Kr46ZAqWpKVgvcCVX/0EDdqWyDqDHMXeJefhSIypdcjNYhWQozRTeB4SFIBHNeWmaNym0jre2aE+T+F1vG/mP/Foh1WKmaZnEuRPIk4GHxE+N3VzQmHFagtyX2LFM64083OF2+GyhTecC+32Wuc0L7ZkpAQIUQ0kszVIcABith55nFDtt4AwZtxXj8v/EKgfn7fs0+F4nE7h2//t7VufprvZ3b8D);lineShape=1;strokeColor=default;" parent="1" vertex="1">
                    <mxGeometry x="148.64607342091472" y="105.63233030660456" width="34.33358473842204" height="30.32396043001079" as="geometry"/>
                </mxCell>
                <mxCell id="27" value="" style="shape=stencil(lVbLbuMwDPwaXwmJ1PPcbf+jQNONsdmkSNPX3y+9hlqLjqfozVU4pTgzpDjIzfP+/mk3sHu+nE9/dm/jw2U/yK+BeTzud+fxol+D3A5y83g6736fTy/Hh/nvp/spcvr6e3qd/sP7jMsUygRi9zEfOKr+/8HdHH4Yj4twX6j08ZUKb8dLoMhdPAvFsA2IgWrtAIGpuG1AThSlA6RAGQBqIe4zlEI5AUAlTn3NjhgUrYASewCTAxm8c+RcjwjkMkyRDSCRi7Bqw2vNlAsAZKq9cprTI14TJbGAgq4UiVeAiooWKtUCggAAUzYZCgmqwa/srVVVCAgmg7oP1bAG6CURS3qlbN1Xvina9/6u2K5iM2hDOGQNFc5kyK0JN62xAiQwBSbzeXslQVcqzTmLoqFw6wZSZQBL13pUSHAKOwYiBeQ+1clInYkRTUpKT5OeZCR1bsIuOighu0ZL04KH64hAspobCUkn5OqqCOSmnwKyKtvzmmNj+vojpCWGDqDPEhrg+gqmXmqJkFcvVHtemamCGpiS0UHg+Pa247yOBWAl157xz3gPze1WVqUC9oZV75Sm4VZ4f5vUTLURLr1coVW/EV77ESzw6fRtPn9SAwc2t/n/tVEhocQ+s448CI/kgwlH3ai8RRPO4O4/3Aa/DdePr8XzcTwc5r11+btdVPVoXnLl9h8=);lineShape=1;strokeColor=default;" parent="1" vertex="1">
                    <mxGeometry x="140.3030351053078" y="104.99582912756375" width="36.83433155821002" height="25.42138039890768" as="geometry"/>
                </mxCell>
                <mxCell id="28" value="" style="shape=stencil(lVbRTiMxDPyafR05dhInzxz8BxLluqLXolK44+/J3qqi8RbDvqVZT+3JTOwMcvOyvX/eDEwvp+PhafN3fDhtB/k1MI/77eY4ntpqkNtBbh4Px83v4+F1/zD/fr6fIqfVn8Pb9A//ZlwgAtEEY3qftxK0/N+4mwG7cX8BqIrAXXwDcHIACRQ7QExIToZSUHuAEjg6gADpS2o5PYAWaO0BGYUcAINzDygIDofMiKak6paUCEIWUPLXANFzAReA6pTE8UpJqX4NCAJZkFZxOCCYeEV0EhCyWtmqGy+GcaPkqBYXR8ooHmEGSQ8IyE4CZmjqAY2To4EkyALA7FAoSGEBUMd4hLLIUJwMGkBqSRdH5XZ5gilJEJyS2vVkY7wIDQ6AEIxw+Szl9ZIiSt8xmvPU6Uk526bXrF09a8eFDtXlEANSf6wXnfa6mZrUcZHCMVPIULUAcoTQBQc9d9rrCaBsZUgO58UkaTp7h7o2PiH29be5QJ6PEPt+9M3gyba/fDPZBGnN5Gzk+vDWn5xuVG0zEpDnhoTcxwdU595P2Xu7kdt8JSLbeHHM08662njP/knthfHjczmPx5/Vo9VOJ59vURRdcZ7TLOrd4+vVGk5eY4fVD7UfANri8134OO5287Py8rt9R7at+Q0qtx8=);lineShape=1;strokeColor=default;" parent="1" vertex="1">
                    <mxGeometry x="94.97275322067856" y="177.52631791301337" width="3.8911585045340256" height="32.22794173739029" as="geometry"/>
                </mxCell>
                <mxCell id="29" value="" style="shape=stencil(lZbbTuNADIafJrfWxJ6Tr1l4DyTKNqLbolLY5e1xFLLNOO2Pepcm/urTb890cve2fXzddBzeTsfDy+bv8HTadvKrYx72281xONlTJ/ed3D0fjpvfx8P7/mn6/fo4Wo5Pfw4f4z/8m7hUSOtIcfic3kQK04uHyX437Jf2Qqm17ysVBoASt4BUEr0OlEilBXIkASGp+hQ0E2cIJG2BQpIAkKmkFrAckIeeSmwBK0O4DtREffBAAR5KodS3fQiBAnCR1dfVXFTQiMxUeg9EAa0uFKIvUwYeTExSfCMK8sAUHJApgzKNHlxd0yzgy0AmdUlHykDfVqUkLSBUQUjWh1Q8EEHjrNWsHmCQQ41zXxfAt1quydWHFOdCXxuILB5AWhpHLvo+KEh6oeZFqxW5sE22GtJvPV4GZG7sAlAA1ELReVDKoK7VclAPKJpqJuFbAFuNulo0SK6pzgO2TBq0OtnyXQ010obNKLscbC+gkAyQWwBOvnFjGYA0KnE701LhmllJz864BOx7b28bAFTIllgbDpOCdOOssbN5AMHUeSH+D54YnG29+IUX5tm+HHyY7wdnewYzwHZ2qrNHx5SIjz9AMcTg7xcBLseY1/YF1Cf1JO6ghds6JQpt/AzrY4emtOoX6tG03Hph+9HeHs63w+dht5sul8vv/jZpr6abqNx/AQ==);lineShape=1;strokeColor=default;" parent="1" vertex="1">
                    <mxGeometry x="158.78129001018317" y="171.98930488571477" width="6.588018456720874" height="47.0426874482762" as="geometry"/>
                </mxCell>
                <mxCell id="30" value="" style="shape=stencil(lVfbcloxDPwaXjW2ZUv2c5r+R2ZCClMKGUJvf1+dnjmAZVjatxPjja3VriSv+Olj8/K+XqXwcToevq5/bl9PmxV/WqW03W/Wx+3Jvlb8vOKnt8Nx/eV4+L5/nf9+f5l2Tl/fDj+m//BrxlWlpBMqhd/zSkyUw9+VzzNgt91fATRTah2gUQH7JVJRt7/G+/uzkMb+QhleiCNJ6gApE7f7gNh8yGwrDAAWQu4ARajW+wCLsKdIeSHh9gGFQg+oQhEckAqVPuaWiMEJFmF1gEgKWC1KsU9DzSSAJAsxhT7oREHuA2qhVHtWlaQAVgOVnqVcSICUaqTUB811oeG2Vu0C4pWhIAYppOwBKNPC1NRfqYEYJHn7sFIFeTC/iQMI5QwB7ACZGna09plmJkYsJe9Q82wDDpVMofSAQA0lrnh5GyABA1mmVTwgohPaos0rQAaZVqM1+qDRlcwuxV3JKjEC8FDHTF0g03pO0xlQYO22K3lalQICmDQGx8GgjfXBcQnloQ60NljIRIagLZVYfK62GgAVY5N3q0PQ2KLNGUioYUB2gEIZsRSHGJgqtmhy8jbxobpkHc1VvoiDLr4/TAZCdWnoQI8saoDhBASwDpR7aUydG3i6mfp1yANoWTGExS/nnqXLfHP7CPapntQC7lSDp0kV96yhfNsogKLOwWvjKqzb44llthdHe2AhX8mq7QdXGli10ob2D4YrNsUC7cXglWE9UVDEVjTc1KpLH75Nqs1rbvohBUqS6KclnAITgUS3P4GqNw1XLmISNOLGZYo/Cxt6zeZTl4JMiu7DCx0XfuBwaDN/X/Hk0f7S86lL67q7383DcJRsZzqunj2otPBS0C8mwwckL1F7piCJWsbcw81eesiU5sE2AAqat6uf8yYASPJ/Pz7/AWAfl7fu23a3m5/K17/7t7Etze9qfv4D);lineShape=1;strokeColor=default;" parent="1" vertex="1">
                    <mxGeometry x="200.72692474802625" y="181.759051353034" width="31.565766002544454" height="39.34824119251329" as="geometry"/>
                </mxCell>
                <mxCell id="31" value="" style="shape=stencil(lVfbcttACP0avTK7sNfnNP2PzMSpPXXjjOP08vdF9Ug2yDpu3myJo4UDHNhBHt63T2+bgcP76Xj4vvm1ez5tB/kyMO9et5vj7qS/Bnkc5OHlcNx8Ox4+Xp/P/9+eRsvx14/Dz/ELv8+4mijHEcXhz/mJVJL+78nXM2C/e70ClESRLYCplHVAypSqBSSqcR2gr2MygBQp53UACyUxgMwQEDOVbgClEAsAMEUbQ+0UAwAsXGqNQgMxlIn1GdCJE6A1UG8WIBQAIDfqLoZAta4DtDSqdSknagDQMkmxmW6wljREl2lOJIClVinYE2KigE6IxC7T1NABgYolSasX1KraV9cNmKLo64IpMbBn/30NCPmTKFmCAia0LO0DqGut4izOPgL/e/DxzoTdto++qiNV0MldJncv/KN6UPtk7RMVEK/aR+t/mR7ctmdim6866esaP9Xy36ig/GoTW7nuJChfWu7F2SN/tH6aOHskjKPmsPM/4fov4vgR9P1AzcabJwJW+9d+/46gRD/NGOsDT3Rc6jMje5UDq3AB5zdTbc4+ID4rteztkZ50n98A86X9mL3+CLJXvfL6huL9tH3z/aKjuYPtI4bgFUJLCKW4Z++Srh8daNBSc0uYxtTtFaoumqBCFUr62laF5qUBmrSrXAxXPNzmaTEouw5ntENNOjvb6wHAfpEGjRl1pjaOG9wMJ8e4otlOSGXaX25zlPwSqItsQ4ts8AB1sqCNa87qDAiUgUs1erXQE+IdObKlN+ov0heZHJgBdwReWXILTiDGS6ArJNGdB7VPnnb1qzxU5FL2M1xvDOHOULO0Sr431dyUFV3P0QmqWi6GSozmcvTVqoAGXNL7RrISoLs1Kg1tr7pYxhk0UC1+t1aXkLR++ur4HwD9cbmpvuz2+/NF9/q9v9nqo/OtWB7/Ag==);lineShape=1;strokeColor=default;" parent="1" vertex="1">
                    <mxGeometry x="269.74616444436333" y="180.68448096553072" width="29.068204989301407" height="39.03234448336996" as="geometry"/>
                </mxCell>
                <mxCell id="32" value="" style="shape=stencil(lVfZbhsxDPwavxISKVHSc5r+R4A4jdE0Dhz3+vtyaygN6d0J+rbWelY8Znjs5Ob18e5lv+P0ej4dv+5/Hu7Pjzv5tGM+PD/uT4ezPe3kdic3D8fT/svp+P35/vL75W755/L07fhj+cKvC64KsSwoTr8vJ62QjL8nny+Ap8PzO0Cx1x6gmQZvA6TN701ALcR9G8CNRvEApta2AblTad4koQ58yOZD9U5XbFKl3D1gwCjJoOxN6okyAFQl9VFqSlm2AY2peB/UAg186ELVJ65W6iCsfVDKDlAqNKkXqj5KPEgBNVqi5jOdBzEAGHOaxBtEAYCpex8kU6oAkEhTBDQQ1tJJSgQUJCAl9tSQRJyg4oJJ3CkVALBMe6eNvwycNkAONzDlDAElJK7TAHkwH4JEs9EbZNqilLweMta05SF7amSeYdjKtPQIQCYZlzRHQENcMj0Ep98Kz1YRSBqjBG9QGsHpMevIOqDFsFqmURGwGypHLg1kUo30NraiImAdqHiTTA8V+ZBj9TbFKaL3iE4vmkaKuwqrmdRA5VsK45VEO5ZoDwCdjXhTop4aLLPFbAHYR8moMXBjTwHQZgPYcjokzuhdUR7+F6CVko9Smgfr/cT0E7gHm263PPvvj9mQVv8/zIHQ4PJU7PqgkVL0QBSaNHqsShXnedgNXqA2B6BCaUHqHtBNPqiHjtkL3qLEk71bww8HgJ2AuFpam4/Su8CtM4PkyiQkn6s0tAYtspE2TJQJlhhrPl47SztCxNBJ/Dde9Mnd9RBpnHyEIcDGbh4RUFGL1jjjmklo8jFiDl+SCmaeTeU5DPYDTg1a4nJiu0YHaTZAMMlOEmg+VmHEE0MVDvYGiCb1OWJumRRm3JbhFL3sLmHXEDgUq80lAVBwWPPVzqdQDZamGpaTBuVpY0b0oX20/sQFS2GNqVdDsa1wqOOuL7qY3h9txvbwb69+ODw9Xdby9+/jHm5Hlx1ebv8A);lineShape=1;strokeColor=default;" parent="1" vertex="1">
                    <mxGeometry x="223.65355362100092" y="120.04905662743147" width="35.42188914293627" height="25.205079386989972" as="geometry"/>
                </mxCell>
                <mxCell id="33" value="" style="shape=stencil(lVfbcloxDPwaXjW2Jd+e0/Q/MhNSmFLIEHr7++qU8QGJnGV4OyFaW5ddSV7x08fm5X29SuHjdDx8X//evp42K/6ySmm736yP25N+rfh5xU9vh+P62/Hwc/96/vv9ZbKcvn4cfk0n/DnjSiVJEyqFv+dfOFGL/3/5egbstvtrgFCtBpAa1bAMyJmk2RuYErhBFBAsoFMoywAWamIAUqnLMiDJ8HgAcqeUlwGxULGAGqmBoKNQLgbQEuUEYkhUbJYqTquox9al0qgDQMkUsw1aKw2CrpXYFU6ogMI1vcEGHRuFCgCNxLqkhWnAvhNb+zTI+Kl9D1QtMSJkXk8kltsB0qKLz1CgAErQyzjuYi8g3l5HRS/+F+RPp2jjZWKUn07NFixjfzp1m586ErxkL/Z8PYCBfSPuNl4sM02oCyAyRRRBppA9oCNK6Hl8AwBC7pE4ekACMSipa7sJGmSpNd+9NKuAFWofXWuBqlH7ZO0zZSR77Tu2ajwa+JIqk0spFcRSTYdXpXRYMqf6O6rMQ1RXqkesrjcspYj8ab7A2rWwios9X6B9DHN88yigjmXsLtBZgij9qL0Mlc8BCwlidCG2MpYEG0udN4g5Yh4Dd2kJydYlnceolXLxOVWaVKCCqKJyrShg3ukwtTRV4grQwU2VdUDDmClY2pW7O4u4NarABUFvqE74PAb050m96e8qBTSQcxy8mZMqcCsq80pz1UxRc1QmsRuxmjdAbl3L3MKs8mfE1X4DYLwVaaFtHRJ2qQW/VmiHj2jk6A1OoLo5AJemGNxKHsdcXMqSq/T0rEBZqiMnV8smajJVFe1cyrANa6VdG1ZAAW2yJgrxIUDwXJpcAmnVjd1NqiloRO+HX2v3AfpxeRy+bXe789vy+v/+Mak/nR+i/PwP);lineShape=1;strokeColor=default;" parent="1" vertex="1">
                    <mxGeometry x="292.0537398021937" y="113.0447035163246" width="32.054302218866994" height="27.10799402108812" as="geometry"/>
                </mxCell>
                <mxCell id="34" value="" style="shape=stencil(lVdJchsxDHyNriiQALezk/zDVZZjVRzLJTvb74OJimMR1LTj24hik1i7wZ3cvDzcPu93kV9eT8dv+1+Hu9eHnXzaxXh4etifDq/2tZPPO7m5P572X0/HH09359/Pt8vO5ev78edywu8zTiLluKAi/zmvxEBV/q18OQMeD08XAPu7tRFQKKRtQFBKaQBIoVi2AY3CeEGKVPL2/kKah/2FSZFBTFEHQE2UgMuhEo83NKFYtwHCPqgtUgMuaKEcRpOUFJiUM3EZALnBIFWmOgJSIFEAaNTqmDahhNImFHgsDCYGPjQzYLzBMlMDSHSmOuahUmIQJCEdKylIT8z1NFTKMroQKYCoihKzD1JpAGB1MN5gRyjwQQKV4AEZ5M1qT+t0AzDJ+k2y9wEVq0Xd32CpB3mzDm3OhwgrwwDFRYkxKZVu8Zq4BqO0VI4D2ApoaTtPx/5ZjESlwb6lI6Y9y3RVD4DFJ8TJAxSVhk4dasyGeEypNh9WBg0kiWRKHBKHBTCG1cIgyOnUDbioJUTe5oO44jMeQz7IBNAuGFs9HaIHZNTTVsxTi75TfDMJBASoVNQ7jfQkThJnXinu6eJUPcAoGcCVt2B5MJPETSa188hWlIJ6AIM8fBig6lkjJFhLmT1rZMiUpnBp3M/QoEWkk9tfkOTWafSB2hCYvcDZ/If0quWJATJlwAA1+xCl1FX4eoy4N9c67yUKgFjTqh3rNIajJOsY8jaY4DzYjBtHmyzSDZGM55hq1A32T2mwcQ8JYui3r0HlPmxdzwIFl7XYGeT6+cUXnpn4DiO1Mc0WMzQpWXM67TGAIv20rCUPkHcEN0434OGtTICKlGFVmgu+gNOedrVcAbmLyxYgNQ9oyGmdarv0QG8CxtKz5xB0enrvBfw0WYboUQ4jY/1cteyClAQBPvrI/Q+Afby9qe8Pj4/nJ/nl//4Nbkvn97t8/gs=);lineShape=1;strokeColor=default;" parent="1" vertex="1">
                    <mxGeometry x="238.77953693019924" y="60.899343548562" width="41.923653806855675" height="42.89448120936119" as="geometry"/>
                </mxCell>
                <mxCell id="35" value="" style="shape=stencil(lVfbchshDP0av2oAgYDnNP2PzMSpPXXjjOPe/r7a7rC2ZO9p87bGOoCkoyOx4Yf33dPbdpPC+/l0/Lr9uX8+7zb8aZPS/nW3Pe3P+rXhxw0/vBxP2y+n4/fX5/n329NkOX19O/6Ydvg141qmxBMqhd/zCgtx/LvyeQYc9q9XgBqpigVUKmEdUBpxs4BOGZyQmYoF5ESlrwOS7hcsoFEEJ8RGxfpQhEIDAHXaniCFOq8DOnE29lWoJHBAIrFpaIUSuFEKI+gD0APMGyfvswIERFVjmGwalCsMfJY8XFyc1hOA01WZYQElEYMrtUo1WioxRZSGSM36EGWsrAG4WCpBJql9sfaJGnC5J4rVXohEgL36Z7MWqGZgn30phHHgfftCtTn7AIq51xHvi30qwL75QgjU0f6dkrj4wHx1qt0yAhay2ncnFUOd1uy9UpBgf5sTCpwvZbSrmUGo+/YypPNi30HFaH6D0xUKiJ/sK6wOYVrjc+nO34b4HH2+ygjYaj1a+4zjEym7dob5Ganb+Cccn+TvHykgfWDqtt7D0Ly1fHF09nB/GRp+Ve9of6WL15N/8Ll7f1Ef03oRcfGE+qb16BSdOrrPB+1jWPRscaDhGxXKVtF1IMqghNsNoFSYA+2KTlN0OOggydoVgz1BaZiB19rrk8tawLoeVSesTmvmUeHwoM2iK40qaDQ3aagFEpt945YIO70OUM0WftYZDHh8EfIFEEaY789D0bdiHT4KYJLOlE7bdSwUNFovvX0B1CFn96mn4uZOENjOdIJzU2MSOIsruSt7QAXkbqr/Nz6guXSa6WymtUWhTCvRcvNhjahAm+/5rEML4GrrowcsAG0rCNA8+RjLngLcmKlcQuWjURLnQ4aDheZBnA8FKvckY7ZTqe6hevjwy/E/APpxeai+7A+H+Z17/b9/2OrS/Cjmxz8=);lineShape=1;strokeColor=default;" parent="1" vertex="1">
                    <mxGeometry x="293.6668114420447" y="55.18474695960413" width="37.07776133307695" height="39.37162907860217" as="geometry"/>
                </mxCell>
                <mxCell id="36" value="" style="shape=stencil(lVjLctswDPwaXzEkQILkOU3/IzNxak/dOOM4ffx9odFIMUF7W99kSWu8FsBSG3l43z29bTcc3s+n4/ftr/3zebeRLxvm/etue9qf7Wojjxt5eDmett9Ox4/X5/n329P05nT14/hz+offMy4LBZ5QHP7Md0QpzXe+zoDD/vUCkApx6ADcKDQACMTSA4RivA2QQJJ6lxI1AOBIHDtAaqT1NiAytdoBtEALjbh071dZgrpuQL2BWkkLiDlS6GOuTCGDrK4RriFUSsAltSr1MeQA61YTsWMGdqkxlZ4ZsVAGZahGJe0AjSp4vyQquTfAlIBHuVDskxQbNYVcjX2SjIwRJIkzJUc9SxKwwMm3jwFKAgCmqh7QAJWsG/LgUgHMYOu3MQbgkiVR+rRa3pBLsVJ1VDL6Igtrt6yAupTyFqA5gC5kuRWD6x+xUqJKByouhkQZWLA6tOYBAY0xIenpLUINUSORqrcgCJCpDEFHxFYlDT6tgrhUKPTDXgomXxn2T8Mdp8tMuSAfmjJT0K6BIu44S2sfg/VDRlmSKw3U/kGN7AEVWQikzQMEcGmi9xC0AAtTA6lPawx3tihacVeGQFn29q0YkiNfhvuBrwmHCrTM3YBPB1YtY6MSuGTyqvSFiwFSo5iw6KnBsKWbkb83YFsdlS2sz1fhQAlE0Gxj9mUz9iKumkfq6oxnt611J5ZsbyN1lQdAUayuVv24Cg0cg+k3dsIh4LzazHAWdKn81feHKtQIG1oGuSe4n+Mydtd+lmVr35pJwVE7w6VuklUctdMyy6+nKHomWS9UkFMTqK7boq0r0AxZl4PFBVcFdJuaVnJnkwalj/Igiu14gwFumVjeMiCGsi+cqQDEPAM4vWd0TwgQffvYWCsYEJ2SUarorBEWVXGpAgA18ijfKgkClEG+VZhWo4boAEBDJi/r73KMIZdkiKHAOtx99P4PgF18nvRf9ofD/KHg8rn/MmC35q8K8vgX);lineShape=1;strokeColor=default;" parent="1" vertex="1">
                    <mxGeometry x="79.554107228833" y="248.97435916624022" width="37.99918312607989" height="35.286980399233364" as="geometry"/>
                </mxCell>
                <mxCell id="37" value="" style="shape=stencil(rVfZbttADPwavRJ7c/c5Tf8jQJzaqGsHjnv9famqq4iUNW6BvskWZ8VjOOQO8eFt//S6G4J7u17On3ffD8/X/RA/DCEcTvvd5XCVpyE+DvHh5XzZfbqcv56ep9+vT6Pl+PTl/G084ceE40CZR1RwP6d/ciNXfv/zcQIcD6cFIDO1qAGVat4GpEROf6E4yn4bEOV10QA5Im4DfKVmAI1yAABPISgAZ2rAJc/kkwLUTAyCDpW4agBTSDBLrNNaE4W6DSiesv4CJ2ogaC5UTB08FRCDeJyyAqRCHgBaIK9dklKitDbfidABvlECWWJ5rSstpSyArUIEQz5/J60S9AoQHQAIczQ1fKTSACB1j2dAgGwtsVNtBrjeg1uAqNOKW3q0b5pK5LFDzWhG/+BWipzTvKCKzi8U9fmBKjp/JUmBIqqxqIO1z8CeJd3N+I/OF031usLS3MB/sW9ajgolZB/Ja38qRcCH8XxDUUcBNLIAgi6YtNmfkt8GeHKrJoCUkBLoEKTNPOj8Ui2Hxr5EpJYcRutSQwBhqWmzAIMep9IqSxlJRaSkAY0Y20dtz8S4j1nzKFO9o0RaJ0QbUcBynNF3cuh8tvGGPlH+i331XTe7vesVuT1uYh8u7/mBe4VzqwrXLk23v9Ds2I+Y1uJS0yXId2OumqWiTg6JaaZkNpEEWSFD3mSpSd1B0CMrdRkWidvav6ruzcY9cbcBlni1kQfysqob44mW+zyaBViSgBbI3Ef8YmuOACAKbXbaHLs+3a5CsDMnNbi4ZLbUk0LCfTD0IbNc75DIy16z+gKcOzPRFoAKBGzcws3g5L4Wb+20pnCpQq4KD6wEOLiX8yy5M8AT3wHoLEmlA+i30SXDpQTXHS52XcilLwRbAGdcYihjPOvi4o6HyCfUqMkC0KXwn6+dfwGQh/db7svheJwuycv39lYsf0036vj4Cw==);lineShape=1;strokeColor=default;" parent="1" vertex="1">
                    <mxGeometry x="135.7954761101579" y="239.0478255132016" width="39.51192517622009" height="32.63907157174358" as="geometry"/>
                </mxCell>
                <mxCell id="38" value="" style="shape=stencil(lVfLctswDPwaXzEkwOc5Tf8jM3EaT10747ivvy9UDxUBirbNTba4IohdLMCd3L0+P7zsdxxer5fz1/3Pw+P1eSefdsyH0/P+crjq007ud3L3dL7sv1zO30+Pt98vD9PK6enb+cf0hV83XClUyoTi8Pv2DxeK8vefzzfA8XBaAHKili2gUuZtQEpU3Q6dUtkGSKbYDECEOGwDNGKpFqA7tG1AbBRsSKlRSQAQKQUDKJFC3wY0yjZJNY0vvL8BE9uIWqYKIuJI3UbUmQqgQTRJ4gEZHEGJlm5DEmpxG1AjiT10qRTAofV7PVkaCuW6DeiadAtQ7Qk4tB4xWUAUqIym4neHpgzW1z5ezxswCUqSSi96QAVJqsXToICCAFqgq5ACSFIVKpY3lXsAFlCZmpMSVbw+B5dUznB9sUcuVNF68SnKJIi0NAxr1h0Jymim7vwFM1C9KATH01eGB92ohbH9In5gqC1SjS4/CZRZY++nZXj+1vps9dCGE2ytj9bs+hDUVvziaiZSBEWmCXL+PpUAYkCrPHkAclOtys4rAHBT1ZCsQmJAgoo0sD80aiFaBcGVcRhmtlmWFtBwmfEw57mpEQOZakDRyw72j+TXJ8xBHmPEW9lUTMGH1msvaFYUAbazninb+BkPFWH+3qI7ddTO2vCpxSiFnKiHEcFMgWoCcVZ9h9Wu3oG3ZO1nVhS6J2qAOoc4s1jk4f08VSrWHjUPHQg1+ZG2NSikFQ1TQwEBrXVd4UCrdZhsjpJ2UADQiKJrOBEC9DXbFE0tAbAwBWBbpu7JIEdZhjfMtOHJqOQxXc6AOoax9wHa5HkFADTrdNlWgAoOXdoK0ODFomh1VQ/oyMKCL9CooxFqPGEMfwseKmoLwc9eehOArhp89TAWnwLYHloF3xBxfVTXQnz/4KG6HTJsbcq0v0LmMeRuaeljt9r/AOjD2yX66XA83u7gy/f+0q1/3S7scv8H);lineShape=1;strokeColor=default;" parent="1" vertex="1">
                    <mxGeometry x="194.25788061974674" y="248.90070731657022" width="39.12640707340683" height="42.065630316676426" as="geometry"/>
                </mxCell>
                <mxCell id="39" value="" style="shape=stencil(lVdJcttADHwNr6gZzH52nH+4ynLEiiK5ZDnL7wOGGYqAqHb5RlHdGExj5RAe3vZPr7uB3dvlfPq++zU+X/ZD+DIwj8f97jxe5GkIj0N4eDmdd9/Op/fj8/z79WlCTk8/Tj8nC79nnq+UwsRi92d+Eytl/+/N15lwGI9rQiBXFCElCu4+oVHQ+LxY2MQXilnhC1NhZJ+1/coUArhAolI1QUzU+wTxKGiPmqcACJHJNX1CJQdcSpVi1HdOMAglECcdhEYJBKFGKl6HmSmBE5oEiRWBUzdxj9D0HXykBOI8iahllTxqEM8mU8lFiDeiSh6hPPXUdF74XhrbeLZ55CgjfKCSDd4jQSNVNniH6iBRTQb/X+BtfKYSzH2hP6WH56qnR/EqVLT+gSLKh2L1EQGQntIotP+ZPMJnqk4XGTHWs2n7UsQofyI1b/CoS0g+mHhV2Lck3wy+UEX5z73nXPVpyB/fw3Otx4r02ajHiOs3aHwgj+vX5IOniuwzRVuPEC/paOuLkT/RDiaH8yH1Bruyj/D51j7Uv3RzK32Q/UI5G/3RUPos3rtFj8WhRBF5JAWlT5BhjlrENKhNypUe9O05KRrpGOTUu8YmIXvKOilkm0ggCjHcLAfShkDblSo0bXQl3Lawvo/21REJHUFs1o8EJ8FN3IpMMlAJ3OtqaRSlj8LtsNkwy4qJNkZ/0xmjzGaQF9OmES0hJEAQQXSYo6MGJPJLUFcEVJ1CaO3mBCCqL3admO6AFvFq+92kEiI0ckZWhiudEMwGJdmekUqNsjkhfnSC6TFRtkzQtH2zQypmOAWnSxuVCmyTn/8g+pggD9fvr5fxcJg/39b/2+81eTV/64XHvw==);lineShape=1;strokeColor=default;" parent="1" vertex="1">
                    <mxGeometry x="261.8063666240912" y="243.9229277281928" width="52.176743433444834" height="40.725188734002266" as="geometry"/>
                </mxCell>
                <mxCell id="40" value="" style="shape=stencil(lVbLctswDPwaXTEgwec5Tf8jM3FqT1074zh9/H2hqlRFqNxpb7K8gAhwd4FJHt6OT6+HyfPb/Xb9fPh2er4fJ/kweX+6HA+3012fJnmc5OHlejt8ul3fL8/L79enGTk/fbl+nTN8X+JqIs5zlOcfyxsXSfyvNx+XgPPpsgkokUroAxL5PA7IcfeFQgICEpNLXYCPFN04IAhJ7QKCIxfHAZrPfCHhoiNV7vC1kK/gRFRjj68U0hgvVHq8YyZmUAFlZz9QQMWOUrJ4DmM8UzEFZ0oQ76XHx5ZhgGeTX1pFA7zrSVe1Ipg/9ecplVJB/QkGXzCDKPTnKZkcyC8Uew2URAVoIFCqNr8H/Y87vBIUEC41Om76UwThq7f9z6DeTGz4IE1Cg/y574/ypyKPIGfwGZ4nNrlu+O9AP8OOz9ofIHgh3uWvkG91hxeIZ6Pf0ixswP/f2Va83jjgMzc3WPGBAjBExRuD89AQ2eqrqmPAet1Oj0jvf8UDP9ED1b7gGOAEkPU+16GkX0Ajo9grcw7PyUCu54Rvoh4N4tjPAIZTUhWVk8GjEaOMycHgkSXOE6IYfAYSUwab86ulAAtShfh+ZkhbLEZ444lqqhhfzVIAJbMZ0SvpoAZmC+nxTjuKbqC2PWlDoYxKKJTNHiGtaaM7MzU7lQEiUbbC13WR0a397375DwH68GedfTmdz8s2vP3frr/6almd5fEn);lineShape=1;strokeColor=default;" parent="1" vertex="1">
                    <mxGeometry x="273.95038684905967" y="246.37970223930347" width="45.179378320590864" height="24.16468750812261" as="geometry"/>
                </mxCell>
                <mxCell id="41" value="" style="shape=stencil(lVfZctswDPwavWJAguDxnKb/kZk4tadunHGcHn9fqIoUEZa3kzdZ5oo4dhfkIHev+4eX3RD59XI+fd/9Ojxe9oN8GWI8PO9358PFnga5H+Tu6XTefTuf3p4fp98vD+PK8enH6ef4hd8TThuVNKIi/5neiBC3f2++ToDj4XkNiCS5A6RIiQFAqJYOkCNlvQ3IgVofUimUwm1AiT4HrVRADqWSuhyEpABAoSAdICZKuErJAQoEjFXvAYlJ6m1AsCKGvqyBQgQAJo1XfQAhVZ9zFhiRzl9brQ+AGEIp+QQaWB8o9/EYd9F69t/XQgJoxMTcr08koD7shaCBEuC1/dvrIFWqIB6h6BiRZ57fqL/LNymMp1Ctfj0jxjHF5gEZqMYomnqKJtMRqlC6EkHDIkjU+hxMeFAESsE1zZJGOSTSKxY10IVgpHcyMCKikALFPiTT5fubG7ps6nUWkZ/OxrPWMdBNmnu0igcZvFW8+ISRvzOV/vvm1hEUyHR51TJECvbxa4TjIxD3vmiky6DDkdTpxnwF5Pvp9YlyH5BZAQNCmI94jpIi4ctc73n9Yn2b61ug2suykSLN8JWVClNFOxTvjbrIaBvAnnSWlIIdSptPBEsOy3zYVo36cbNKa9t/lxyXLQox6IM0qj1TqyWBDwnVSVmhGUn02rcZgk53Ukh7y45La7a5ZwG4MpVZT9uAQsUBFNqdqbH2bB3HBAjJ5M694MyTFRjAx5xfAd6bvw3I/uxlISGPN4fzAJ2z2mafzdrqy1rwodk3juEkHIdMbxpmVAX0YZwCzpawzRiA3Q4VDp7xANtTY7QNENLnLy//B9jDx13p6XA8Tlet9f/+bmWvpnuZ3P8F);lineShape=1;strokeColor=default;" parent="1" vertex="1">
                    <mxGeometry x="70.92759811122176" y="9.902982980938532" width="25.89702248392006" height="21.46155373251538" as="geometry"/>
                </mxCell>
                <mxCell id="42" value="" style="shape=stencil(lZfLctswDEW/RlsMQfC5TtP/yEycWlPXzjhOH39fqKpcA7LuNDuZ1iEJ4F6QGuThbf/0uhtieLucT193P8bny36QT0OM43G/O48XfRrkcZCHl9N59+V8ej8+z79fn6Y3p6dvp+/TDD9nLjOVNlEx/JpHpFGRPyOfZ+AwHm8ASZSrAbJQDttATNSDAUqlzttA6tSLBSJx3AZKox4NkJgSiKEF6skAkYlBDElIsl2hUKgACBQdUKmitBZqbIFGEQFCif0KGQGBpFsgU0WFaxSsNFJc8nYfKFTtlqRTBoVT4G+ZrkCmhoBK0UpDIkUEdGK7go6EDrLE1BygURUAZJ+lmCk1ADTK2QMCABVzK35LCYkvUbEWjdjTKuZqLappKBkAdVXpTBEZqFKxFtU0wCagITpPR0pohbRynKYVAUxiK62bRIBo27JpVYsy0lJa1H+zQsPi81u6pmHLotUFLdiilYIDwlLKTYs6aegUwA8KOLVqp0Ly1hj8CmHZ5FYja85AFbb7DwOl+BNIdwSU0RqJLTQ+Tjhc57vuSKDhWqZigawWBD1gOjItoFN0fAAFF0PAUbN4tXbNA5DGKuhaicH7+c5NA73P3fdudSADN6iU2QpDp4jIoN07miu0jzYttjGw9lrU7JOXngIZBL1uxYwNmvVq4rbUltZ5H9DGay8OUyXRCtqK3fUK9+6cfbPX2jNIqwIuS9NlBcWQV9JgCkAaCgQbg7axjmKQ1QlXlrzdBz568/4PQB/+XfRfxsNh/k64/d9/GOjQ/FEhj78B);lineShape=1;strokeColor=default;" parent="1" vertex="1">
                    <mxGeometry x="19.18623001561582" y="49.45062872773974" width="19.123343861079935" height="17.839542485315928" as="geometry"/>
                </mxCell>
                <mxCell id="43" value="" style="shape=stencil(7VjLctswDPwaXTEkwQd4TtP/yEyc2lPXzjju6+8L1UNVhKx1fOshN1vCmgSwu4Q58MPb9ul1MwT3dj4dv25+7p7P24E/DSHsDtvNaXfWTwM/DvzwcjxtvpyO3w/Pl++vT2Pk+Onb8cf4C78uOGFyZUQF9/vypFCWvw8+X+L3u8MsvgQa383ifSJO64DsiH0HCJlSXgfETK52gKh7jOsA9lRcB8ieUl0H+ErS51CEIljBB5LYAaoj8QAQ244nQGl1vg5g4j6HKuTQCtqHBQBuadrxBKgUeR1QKSziBcQXin3bvHPk3DogUUl2gRoAMcg7G4/aHCizjUc88q0cs4oG8Puu0XjW4wjydVZpNVMEHZuqN8Wr0oA0XdPhFB+JgdBGkpoO65IAEMQCRFkIKhqFslGmkhSUVF+7XpmJqYKajhvoixodVWBHoj3qARyb31ynNVPoaREDMZCyGp6xo1ibNK7rQCzxkoNESonEWQCSZlqYvAIKaJy+TostedzpmGzSqKyxWIfUJwUkrceCXSGTR3aRrb/ESAmtUBo35wcPKKumWAz5PAkgXwrkqwWgKqW42NKNTpdmie9cIS9c5kYOeraK3FOlPL2e9wH4ngK4N4Ebnc6BilkBc0lzsCtgtqbafO6dekjZmsAtxanPLSQKO605LLaEXGNMsdikkS9pEaOpkjT+rikuLSSa8ahnAQkrbrklxprWpA1bp8HpDgBma+4VNx4oIGlR1+jnBh2dAlDcbI6aLYEmkxqo5kVdQRLj/GvOXaEEDjl9nfsVSoRJsHauB4hAF/gYoYePEfp/H6HVcXuzECybYqVfEhZBJe4ZocJjAGC2QubazrpVR+1bpk2sSPkTw6YaQbsrfnFhQAlfMOQ+3rV/69fj1XfExCPKFZ0lvIm/YY2GQ1iSpdq7At0POg68HbVdmyrX/vEYb/fwBBT10Z7ToVFkLb70++fm3Gvx1RyYsL/j7/fxqR2ga/G+r88011+Pv/NC63a8fvh3e/ay2+8vl2/z9/a2TR9dbur48Q8=);lineShape=1;strokeColor=default;" parent="1" vertex="1">
                    <mxGeometry x="138.4119805520686" y="7.805899960646684" width="24.912598183346905" height="41.97263513835317" as="geometry"/>
                </mxCell>
                <mxCell id="44" value="" style="shape=stencil(lVbZbhsxDPyafSUokbqe0/Q/AsSpjbp24Dg9/r7cLoSsuPYUeVvLHPGaoTjJw9v+6XU3RX67Xs7fd78Oz9f9JF+mGA+n/e5yuNrXJI+TPLycL7tvl/P76Xn5/fo0W85fP84/5xt+L7jM1GRGRf6znAhp/XfwdbE/Hk4r+xKJ22AflEK+D6ix39cBsVLR+4Am1OIA0EQZAAIzMQ+IrKQFuMgU0wCogTiAJBLJ6MGuqA0AhOKYRCvUQJlKpRxGQKWKGhGojXVtjRJI2mriqmSABuqaEqWwAQAPWkg3ANQ5ZUrqk26grGJMiB4QGACEQvF9YBCSAXTUQ0uwSpJJXVmVGuCShk7/FYABNbR6QZhEEL1T6YpcASIIKW/LKp3wt8knm6QFiroYEZpPGs0ZE1Dd9EGBh1mizkOmFAFAe01W1MhoCPAmaRMtqpKSOPK1fnK7D5lK8oAKqJEqycil1TC8jeA+6FYuCpCcxi7hFSAiQZTNnKmkoBEmOc+N0it9D8AupEwCOvdpgCVd3QPBVNEkM/aNCrJxW1FIxc97tZDSfYC9y2X0EG3eA24E6/QICIkiKKvZjzmbQgExNo+uUBIQziZ8SuD2RMEFj5eG/mx8mDOgXMg+V4YT1YJt3j4gSjPF5uyRKmc2qL8f8VP7U7+KHz3l7CXGfXu49/Rn8eVHU6X1cFfdBWT+7Nb5f3v7+FhxXw7H47Ihr//3K7EdLeu0PP4F);lineShape=1;strokeColor=default;" parent="1" vertex="1">
                    <mxGeometry x="195.43770527300615" y="3.022536269004263" width="5.891807332981818" height="45.418004661366055" as="geometry"/>
                </mxCell>
                <mxCell id="45" value="" style="shape=stencil(rVbLjtswDPwaXwlK1IM6b7f/scBmG6Npssimr78vDVepxWwGLdCbbc3IEjlDcpKHt/3T626K/HY5nz7vvs/Pl/0kH6YY5+N+d54v9jTJ4yQPL6fz7tP59PX4vL6/Pi3I5enL6duyw4+V1yolXViRf65fAlNYv3xcCYf5uCHUQlEGQkyU4n1CrqQjIQUK7T7BlnMeCIXhH2L1hNogIdS+3AmtUCqAUIjDSKjUKiAIaR0JjUIChEAxeMLvuL1LUJLo8Q1ENVNqHp8BXojTiFcq6MYU2UdIwPlNZS5AmSrIGRM7vMD7MjV3nkgCEhApu/1tB3Ce1Fc7Xi3+AfiGinq8AJ+ZDXPzBChquVGExYwBIVNxIQo9yPdsE9THNGOf+SQkaH0jFKfSDKNqxvRps2KALp2ojLXCdK2IECmM5cuMU0CtaBTHKwTGebDSc+P8CpQh/bwbPAOnBariQ6TQabfFMYLzXG+3SXIGMuKumY2K9D/il1I6Xrhmisj62es6mzWA6qxDaRkIYltkkGLreCPBhFvBH9SSNsrUZIjw4r1sfwSa0+xFxCTAmKo+ppZ1oCErPfUGD85jxdy1A4bV2spC8vdlEJ+lGXk86h5WFFz8pfe39/GtN8frkAO766YmXIccYlRVmg/odei5dwE3gCg1hP/XOfAvCPbwZ+x8mQ+HdWrdrvsx1T6tI648/gI=);lineShape=1;strokeColor=default;" parent="1" vertex="1">
                    <mxGeometry x="5.4852377086724005" y="138.2080324855583" width="17.861321170131934" height="30.024301864167658" as="geometry"/>
                </mxCell>
                <mxCell id="46" value="" style="shape=stencil(lVfLctswDPwaXTEkwOc5Tf8jM3FqT9044zh9/H2hqlINyNo0N1nGisBiFyQHuXvdP7zsBg6vl/Pp6+7H4fGyH+TTwHx43u/Oh4s+DXI/yN3T6bz7cj69PT9Ov18exsjx6dvp+/iFnxOOG4U2ojj8mt6kSDn8efN5AhwPz1eA2KmIBRQKGQAK5WQAuc6fuA1o1IsBVCFO2wBJFKMBtECpbwOSJmBTqp0CKLoIpWwBgTpvA2r1gFxgDU1Zsn2QRqkBgLIUDIAXGm6nFKnZxsVMBRXdqVtaY6IMGlcaiW1cZKqghlJXgEAZ1KCAYFOq1N9ZwGmPEujCWIHlSCgWSFGzbY4kIB/tQa0mPhADoarwm49HOq2Zurj4DOpVmVaffwP1qk2i56chzfXZJXN8oQjqVd8G269GFefz1+dL/hHarGqDnaaFpAJA8eNOTdDRCmkFyHPTbwOYMq8ASESLR65TAiuoqhv7ohMycl3VEGfeNn1pddTmYbMVH63xdToin1Wv68UYW75kp4t5Wm75MtphqhyjnonP/11fso9n9P0PxnemYPmpcK7EsOS77B5CAWxovVC1Gkp492jZ7+LaxIxnqdiUdE+MQESpz7N2BnTVLWBJgmfpiofbPAllq6MuVEAR6ivLkk40FL9qQ8mU0WGKov1+jvCkk0ls/tJnDrYKjhbAet4Dw4jZDyNdE03g8ZTiVkiwa7za00YAaBqvTnf6iYBS0mmxqgENVBVSttrWNQW4R6LXEeM+CPsBoGt20GgFZDch1dAY4Nwj2jhAq9bQLEtSZ962WGquBnzKVk4cSynMx+jbgI9eXv4DoA//7kpPh+Nxumpd/+/vVvpqupfJ/W8=);lineShape=1;strokeColor=default;" parent="1" vertex="1">
                    <mxGeometry x="30.96217683741247" y="140.13497570892116" width="31.060642627331443" height="25.540066874701044" as="geometry"/>
                </mxCell>
                <mxCell id="49" value="" style="shape=stencil(lZbbbsIwDIafprdWYiexc73De0waG9UYTIyd3n7uqjIcqFHvSslXn/78SUc37+uHt1WH4f2w372svvrHw7qj2w6x365X+/6gTx3ddXTztNuvnve7j+3j+PvtYVg5PL3uPocvfI+cJOA8UBh+xjcYINS/N/cjsOm3p0ABZAMkhhTngVohJgNwgiQuUIoBJAJ5QIaCFhAITkqiGduiK0HJ8wBnqNUCDJzmgYJnESoIzQNJAFMLsFMDJZDSpkTO4JCAQ1t0xHkgatE2Je0bOTVEnMZ0BAIUp0uRpoyP0qBJjpcBAbERCrvSQGnVqpPB4MwhQLZAFnfSWcVsa8iaEjvSEMi1jYBOhEH9TQ0R0OlSjZCjBYq7p1U51aqV0Y0Qg5qEFRNXCN4e1S3XbOo8zfIyoIOwo9ayqiNX1Vps9F2mT1weBJ8B1Z1cxrZNJ324vEnV+8iGEEgOgDwN6gioQXt7TlpAqmsDuudCMwgty4ugAC8BzqShB0R22qpqte595QRCYLtejcoTqx5YVkhRXcnRRVSdNSYDxcu/tg5AkJz+qCc1NhkhOt8nmWx6Wu+LTo+SmBesV7+SuiAfNROWtl7Hv/S4x7qgn+okzWE7DMy7khBke1BdUcTyS891QB/+71hP/WYzXtFO/2/vZPpqvM/R3S8=);lineShape=1;strokeColor=default;" parent="1" vertex="1">
                    <mxGeometry x="183.02427936820106" y="144.8668072219599" width="3.8871688611460327" height="7.994311407412435" as="geometry"/>
                </mxCell>
                <mxCell id="50" value="" style="shape=stencil(jZbbbtswDIafxreEKOrE6657jwJNl2BZUqTptr59aRjqLCb+sTvH4SeL5M/DJA9v+6fX3RTD2/Vy/rn7c3i+7if5NsV4OO13l8PVniZ5nOTh5XzZ/bic30/Py+/Xp9lyfvp1/j2f8HfhtFHRmYrhY3nDlWR5830BjofTCmhCIQ6AKCkAqhDLAJRIlQEQKJYBaAUCpVLLA6BMnAAQKfAIZAqyDWQhGa+klbRuA8lcHMOqSqVsA8KUxAMat4EYKLkrNaoAYPaJ00IMEpeIw2gfKQP74D1ojSRA+/F8k1ZFMaUw2lelBOw5UKsjkLtQtkIaHSDQA0taHF2upiwsi6weECBtEx43fyUkvMI3ThdS4IMVTx2BFmAa5vIcq61liugLSsEBShUBqUf9S3lCDUg7F8oOqMQASOWmeLR7dT/T2WeaQ+h6vC8m6V1x/YkG5Cq93tdOoFR3qa2jBOqTb9qqpQFcKPh6m/MM7nPXHpxv1T7KIlfY5tmqNw2A4OKxv6vrqf2ErSTrGKFCDZyfgs9YgglLNllHe+sWIEA59fx0+wBniI21ps4eSbTalMzOnsEUtH7rJoKNFBBPG9uxOX8L8Nfmi+ssqSfkvn3xu4sJCNzHCtDFfx4R4AOrGv8iEtws7q5TCeTgP/Yve/i3vb0cjsdl+Vv/77c9e7VsivL4CQ==);lineShape=1;strokeColor=default;" parent="1" vertex="1">
                    <mxGeometry x="199.62011851905015" y="151.41478598560377" width="4.645051071412733" height="11.665961716331026" as="geometry"/>
                </mxCell>
                <mxCell id="53" value="" style="shape=stencil(lVjLctswDPwaXzEkwQdwTtv/yEycxtM0zjjp6+8L1pUjgsq2vskS1wQB7ALgjm9eHm6f97sUXl5Pxy/7H4e714cdf9ildHh62J8Or/a04487vrk/nvafT8dvT3fn38+3fWV/+nr83v/h5xknQo07KoVf5zcxUQ1/3nw6Ax4PTytAU9I4ARQAAqVpBwY7FKUsIyBSBDtkoRAGgBLX99dz9UdoFMB6+xxHgzIJWB+V4mgPU2aw3j4Xt74W4FFKLgKBGKyvUwCEIrDf3JmG9famJGB/ojAalAMMWLQAtAFQIilIiRSp5QFQE3RpKsQjwNKwIUCjWkeARb0BgPooiLlBQNYFCuOhpZACLxmg6AiwPVFeRyqjScoUwKGNCM6tmpdU32aafR5TQwsFkHolU20eUMEZaiVhD0CBa7IkwgqQM8huWciyAiSQ3mpems4QEaCRhKt2MBGe3FoAH1SXI64ACuJgABklzE71N1m2KRrCJKoNn1qpiQc0DEguELK8ec9NuXoAEkozIKsHCMhvc0qeTFLgpp5rE6AhkzIV8YCMduAlsCu3KnKrFY/oAQwIsQGoOHBmUvaAiHawQ7vAFRw4c+tECNQz9MBNgAhko6fGZBIqirqlMwzku6f3rGQY4HWmEl/J0YrT1WTAEaLB0t6FZqIcqnI9/bMHFBwIL/jGUSzHXl0FE+JagFWIOp1BQC9gNUgcgxTWUatyyh6AKGd1NI35vQr+dqlOE+cUph8zpUmZkJSluVRXOAlY2+zTNcNk6n3waJJ1QLDtYz/NiFEI+LV35q7HSosabgOSFxrrEwVoX7IwjTu0CAlhzbETmnqJzDbA/m9M15JgMplL3DgTYFVMfpyxeUBAnCdVig2qUlja4LfxDWV2WZrgiznQ+jgRARPHPkvy6/EgEMcCfRlWtnkmvk9iqHdZl1bwEt5FPLajG7xkN9jp2WBUHWdgu9AuMvK2vv5DTd2gBEuOTL2trQf+1+ClUeDAYOvVtQrL+Lq9PvrrCCVG9sSp1V7qz/b6iV42ziO+d8A0/zdskas2Jhmw0TZFKR6AlN0AYboUQqSxIPB8KQRMsqxwLO68BmG++mLrPwD28HaPdn94fDxfw62/+3s3e3W+s+OPvwE=);lineShape=1;strokeColor=default;" parent="1" vertex="1">
                    <mxGeometry x="42.62218423454783" y="390.8671808627362" width="56.47769236540786" height="95.63118915423007" as="geometry"/>
                </mxCell>
                <mxCell id="54" value="" style="shape=stencil(lVjLbhsxDPwaXwlJlETpnKb/ESBObdSNA8fp4+/LrSHb5O5OkZuz4az4GJKj3fDD++7pbbtJ4f18On7f/to/n3cb/rJJaf+62572Z/214ccNP7wcT9tvp+PH6/Pl77enyXL69eP4c3rD7wtOMtU6oVL4c3lSKfO/B18v9of96519aRSisRfium6fE/Vm7DvlsG6fGrVk7KO+QdYBUagXCxBqDQAidRtBYuhSDFTEAhr1DABMYk/gTAySmgKxTVIOlBIAdGpsAZVKBGWIFIMBlEQFBK3/btkChAQEXTMFW7gaqZV1gDIvO0CBdWhM0VG1UQYn9DAcuHI1EQMudU2iPUHqIMsKNQIFm9eWKILKda2cJVPTIDoAaF5tEPqEUZq0cpZ9vVEBLlWmasl0F9ZaU0d3RIc9N9FZPEBAR3CjmjwgAfqxjA67izoDl1hr7QACW0gBbEutdEH0U0B1QWOCawzVnaA9AviqWerdAnT0AIDWQYIHMIhBK12KByRUaSVn9oCCTijUug86gkpnocAe0JFLmtbi69BBy00At7P0TLTkZNYPuiaRS9UPy45Xiqa1uML1MavWCiezBmoIEPxgmgBgbHAfZboDZNyiMsuSAJe0gWTWomilTC3qTqhjGK4Bsqt0gVtOY0gz8sEY2uwEhnpG6+C5pPIEFU71DHtAQid8FqCLXFwDKbsAvUX7y5EvjrGwvLOuovO6FQVrAZ0abu+GEdWyS9XrGbku1uWgmx+VEuBsVWXMTs9g8aBDoFqXahqSaJlLmZKlRqlD/C7LxFnhShhyf03qumGceczC5RO8ltaOQlmdySW9PqDZzUOvXe2xMJ7EvbsNMFyhKY+peLvPdCR9gpeIunHBLtEKibWPQ+sv85Q9i7AUm+5v8hn74u9jOm+A/6KrzdujdS5tvO4WbwD5V3tfsLEllu27nxQJLh21L9YfhgSav5+hVpj7n8fiXc2PzWeBV5Ip/+LskdKe6mvtKyV8C/vU/f//9vrj9rHhZX84XL5V3P/ff5zQR5cPG/z4Fw==);lineShape=1;strokeColor=default;" parent="1" vertex="1">
                    <mxGeometry x="108.00115150117074" y="413.75079190897327" width="35.35719896828368" height="61.13711420579795" as="geometry"/>
                </mxCell>
                <mxCell id="55" value="" style="shape=stencil(fZZNctswDIVPoy2GJAgCXKfpPTITp9bUtTOO05/bF6qGqkFT2MmyPgF4eIA44dPH8eX9MKXwcbtevh9+za+344RfppTm8/FwnW96NeHzhE9vl+vh2/XyeX5df7+/LE8uVz8uP5c3/F65SiB5oVL4s97JAkj/7nxdgdN8vgcqcDQAVUBxgWwjcICKDkAQyAASQeI+IAVqNUANIGUf4AIxWYAh5n2gIBAbIIYAIewTFKDYIlSH6FSNAtzllKGkfSBVCGhlUh2cqlMCsjKpDl4jkpZoqy7UXjEGIrAtmnJTegxw742MwE4jsABZADUlJ4K6OVq7YgB0gKLmtBGSQHGKZoTCfQTXrhmqWKA0GcYDgS2BTSVyzVcFxKZEfuPu3Ly1mptw4xBqHdtq1r3hFREe7CpuBK69TLoYsgNoxvIwctkZCDVnjT0gTg1ZJ8iqpDKQkxLG3kxSXW+k3My5AcGtYQHwAWCn1Vq09QZvrxj3AcgGKAXQy6gfaWIIjqgPzssFxPFqaJ+nu+khb7E2ObZ53nbI2KgQre0it66PBdVB6WzXRmOsT+ldl92FhNzkaM9vG2ps0toX7H+ploVn849A3scz9tuIOv314v9x420+ndbTyv3//fFEb61HG3z+Cw==);lineShape=1;strokeColor=default;" parent="1" vertex="1">
                    <mxGeometry x="154.22884774936426" y="445.45342403567327" width="5.893017144521362" height="6.603173294803154" as="geometry"/>
                </mxCell>
                <mxCell id="56" value="" style="shape=stencil(lVbNbtswDH4aXwmJokTx3HbvEaDpYixNijTb2rcfPUNOqMQEcnMU0uT3Q1pDevrcbT62A4bP8+n4a/t3fD3vhvQ8II6H3fY0nvVpSC9Deno7nrY/T8ffh9f598dmipye3o9/pjd8zXmEQGnKwvA9n8QQIIT/Rz/mjP14uMrACrWYDGEgWk+IBRhtglZI6wkMaAtwhewVABITXwhiXY9f8LV4qkDZQQxi+0nJZShqgWw5FZch7ShbEQTQKaD1k0WgBw4A4sZ3i8dG2d34EgCrZRTYEyxCsQzFDCU6CQJiC6irPMSVILHVLD2YkAUCPtISEwQPg4K2Ktfigp5YtS1JBnJ8OsnWDY4AOxXUF2gnQXRYPWer8boKanbHGZO1yYJGYH92LElFIDoFbmYzJ+BHZj9VX7VeAx2d4vQfF+cv1kaI7K9H6yMCLo7I2HbPZTY9Y98ubD8+L4K2eH+9F+Wjj2cHLycQ7PCSg7fq7rTvV09VJ0E/Fv1yESgOAimNkMUTwZVMp6pfLrGt/JUpuLUptZV5v0TtPwmlADnrSFQGKzNz4+E+r9y3pCfJSZg+qrYloTas951Rm5HXrwr6cLlpvI37/XxRuf6/v5no0XyrSS//AA==);lineShape=1;strokeColor=default;" parent="1" vertex="1">
                    <mxGeometry x="171.3792423264323" y="414.5451879368063" width="5.405744118280141" height="4.6979976569940955" as="geometry"/>
                </mxCell>
                <mxCell id="57" value="" style="shape=stencil(lVbRchoxDPyae9XYli3Lz2n6H5kJlJtSyBDSJH8f0ZuDs4Dt5M0cWktarWQN/PC6eXpZDSm8Hg/736v38fm4GfjHkNK426wO49FOAz8O/LDeH1a/Dvu33fP0++XpZHk6/dn/Pd3wMeFyItYTKoXP6YsQy78PPyf77bhb2Esgrp09Byr1PqAqtR5QlAR4aI1SD9BGFQBiCBRCh2iWFQMXSrV30TIpSKIVqrEHVIoBACJF7gFKCgBaqKQeYFk3wGujLB7QAE2VqagHMAhJlMpV0qoAkKk6D4U0A0CaC3sGMGUUUiJpPSCQRhhSKb2YlLjApGMfksqsx3u0Ruch48JZQ6gHBFA4k0a48hCRWgPVXkt2BVRrmVlfJF0BSybm0jytDQGanwLWIRnlYNp0lTaWgJaaUHNqFcpAGjYjqvNg0gAArTc6roCk1VLsK70YVbe1UTzCXAiIqdp96pPIYPTJuSMXNKH5LUwp+UIk1NQG4O8AcqTUV86uKACQgn+zWCiClosU+ohigg10/Z7MLXvH3CVcYfNE/5YUEqCJPM+rc7IkIHb1sSc4XIyJ3F8f4EsY6yyviz2i0tyLOHvUAcad0+d54bhpz1f3m5oA+aYULY4fyH7w493qgcT8zX3q//Z2uCxv63G7nXa/5f9+2bNP06LIj18=);lineShape=1;strokeColor=default;" parent="1" vertex="1">
                    <mxGeometry x="158.8053121381463" y="442.63549114647435" width="9.055012461364829" height="21.24963159017625" as="geometry"/>
                </mxCell>
                <mxCell id="58" value="" style="shape=stencil(7VjLctswDPwaXzEkQYLkOU3/IzNxGk/TOOO4r78vNC4VAbK2k0NvuSkOVySwuwDEHd+8Pt697HcpvJ5Px6/7n4f78+OOP+1SOjw/7k+Hsz7t+HbHNw/H0/7L6fj9+f7y98vdtHJ6+nb8Mb3h1wWXKMcJlMLvvz8kSpdfPl/WPx2eF+tjJK4GEJkSbwMSkyQDKNT69nquVN0GlGV7fYnUglkfKITt9cLUs42YUtteXxP1Zs8TqGYAEOrFblAoIMCcwAHITAxSKpnYhlA69QpypIBuANOeAJAzRSuLlqlg1pLNUk8UwA6sIVraeiMuAKDvszH0TgyIY6VJPKADHtL8vjemsZZSo5D8FgUEkYRq81ELck+h6naoUK4pU7fM9UIFA1zUnfGRVBvWoD3ioLOnunVoaQU45lqlDMSkWSpOrpo3RJxQsWlVfSNDcPP6rg3GkNuQ/8Jy0NQqNVsFRJkGO2hhCjZLopUS7NBWlisyau1VgAoh2x0KwyOp1FL0gJgAQEYvWAAa8OhUJGyWShnF8Dqg+9JXKiTurUgsiysofWuAJBLgh+lIVhpShqU2g7ZpFVwEprQ6abRhqS3inKelQ8dN0mAPYMS0tunojwQBgbJ1nAgJ8LQWleIAeeRtC+DUqgaqGOCGJZUGanIaQ7SjgDpOEA9x9MAZoLUQeFq7bHeeVmaQWvNqHGMcg6yOxKPaXgfUlaczLjPdd/apLgGmFdCS5wGVmUUfX1KNz+TSNIkJMdeGdJZyRYWp+r4reABSj1ZLxGQ5pI33ApqMLM49K8Ej1TK0NgO08gCADt/NHkmbUgLMlbSasAI0dY5+B01DB0F/DKIfg+h/HkSBXN8/iEb/7aeDqAAH6eQabadWU0eQpVypuNaO06rV2n0s5g6blsxNcP5CriMN1wHJMx0FjlhaNoplOmY4JnL3fVR3CEgaKgR3jRBIQOONlaItG0ngRUjztwJc4AxXKVj7sEBhFGru/RVeU2Qq2b8fzcXsh1Zdn5H/fX403gJUFCnZQs/qHFAjwxDxvF5FApwWfDOc6jg4z2rEUAYriDdc0wPQtMrLemC6VgLro5/QlRFYu955E/jv9frwdu34cHh6utxaLv/vryn1p8sVJ9/+AQ==);lineShape=1;strokeColor=default;" parent="1" vertex="1">
                    <mxGeometry x="187.07348106010033" y="439.93061205469337" width="40.67595606184448" height="26.72979809881286" as="geometry"/>
                </mxCell>
                <mxCell id="59" value="" style="shape=stencil(lVdJbhtBDHyNrkSzV/LsOP8wYDkSoliGrGy/DyfCKCJHU4Fvs9V0k1VFsjfl4X339Lbd5PR+Ph2/bn/un8+7Tfm0yXn/utue9me72pTHTXl4OZ62X07H76/Pl/u3p+nL6erb8cf0h18XXK/Ux4TK6fflSRYa5e+TzxfAYf96C0jUqwckElkHVPtfdwBWkrYOKErsATlTBitkpRG2NEgYAJhScYDSiXUdwJWUHaAOSmAFttd+S31QQTHYBpIDjE6SYZZEHUAKtbEOaJ2Kj0EaZcD0MF49D8IzlXcB9jqJj6FCaYgusmRrpnWAJsrZAZqpCxCnPAvhCjAeEKBQbx7QYdDaqNUIUAQYlDVuSQFxaiF6aTSljmLQaNHOpBWoNSVKfgmrCxXtySzn02T6TkBMFkRwUFcqoApYmpovTIOJgZiMCAnqy1RA1Fpj0AaAec3ENQIyqAIm1+qpNk8pCNoMEfRtWUJpFaHqPdo7deRRobJgOiGPLsq3ialhUw9PnMm1IlMz5WC5Mf9izaMpVIEO64wxrUsA2lKfe+DNlhpSq8wd6ibohAA6l6GbtDIGaHCclSokPgMEpjtlFLRGHrpQBy3owwBrOGHYEIGd3fw1fJbM5QOs0FqsSze17X4fvSbluoTA4YGFkjeE2RzJtdLwlW80YhDDohZbUMihZZ6mrsNMIwXfc4593ZYcoFBaBKHumbRAnbSUdm+3PBf/+wnS2Yzz95gyc0rx/2c4Kk2No4T9o+HN+IkTq8ChwUa1xjGjqLlNs53XtaWo4hVCc5tkBXJkgNB6bMIUQPIUtE9SxqOVzXZhUirW7tA8WeIAWpg6cj9HXZQ8t7u1iZU1AgZg2upVk8UKIEvTlDMWMQCme4tnE8sS0tLHD2T/B9jFv/Pfy/5wuBwfb9/H86I9upw1y+Mf);lineShape=1;strokeColor=default;" parent="1" vertex="1">
                    <mxGeometry x="239.58213904903266" y="420.73877294737736" width="34.937107311572404" height="25.644391569036785" as="geometry"/>
                </mxCell>
                <mxCell id="60" value="" style="shape=stencil(jVbLchtBCPyavVIwzPPsOP/hKsvRVhTJJctJ/PdmazOKGG26ctsHPUA3MEz68LZ/et1Ngd8u59P33a/5+bKf9MsUwnzc787zxZ4mfZz04eV03n07n96Pz+v769NiuTz9OP1cTvi94kIgaQsq8Mf6JTHl9cvXFXCYjzeAWEmyB2QISIWKB6h5EAiQ6AAWZFEAqD2ADpBEDAA5UPAeKmkA9oWi+hQogJSLUmFnzxSBfbXfMtgLss9Uk2eoB7hp3wKpzzdTK8A+dzquhCppAgDjz2tsGVSQgQHCkEGlyjAk9pRq7kdsA2TkKBpJIGkjNXiRY4YhlUbFsxpxDlYWfAf4U4jbdXenc0ywMLL0AK4sNai0tU70IamSgFZYmtN7CIkUeSjUvAcplFCzWeX4WhImRUknSgNLXZhtGYSSF1pIQCUVm3h16E4GMldzX4fzI5h3zcbhMFF7JW7bp3FkixBnADAJ/HgR61fUbFsANPCEeWzPkmESVTvnHWAdXuu/AZHHmXrjdDso08Hz1JQSKAyrs+RLdRkioLbzeLPVBoXQUehqSgN7Ga+diu9mHgu1JMpAhHvRGPbydaZfrxGLHygQqPoyst6OQACL1vNvqwW8dij485PC8bjcYv5eSwKnnY2qYcTbdhQAQ5Zy4BGAJPuP/cse/m5vL/PhsC5/t//Hbc8+rZuiPn4C);lineShape=1;strokeColor=default;" parent="1" vertex="1">
                    <mxGeometry x="243.07509001592416" y="426.5865350540006" width="13.375578127230417" height="11.348469809806428" as="geometry"/>
                </mxCell>
                <mxCell id="61" value="" style="shape=stencil(lVfLbhsxDPyavRKiqBfPafofAeLURt04cNzX35eusRuL8o6R21oeCSRnSI0meXjfPr1tphjeT8fD983v3fNpO8mXKcbd63Zz3J3sa5LHSR5eDsfNt+Ph5+vz5ffb0xl5/vpx+HU+4c9lHwdqet4Vw9/LSqAQ/i98veD3u9crfCzExeElruMTU2gOXwE+Fx8PU9J1fLXz+3gi1bqOb5Eyd/gM41GmmPt4GBZIyxAQkzawoVHuM5ZCVdY3cFgoWnJIMGmtpP2GKiQFbIgk/YZWiQENVlbpabY6JFCm0ryOVEmRMISCIyJgqUqj4mJqpKCwZyn0TFjhKqCOM8XqN0QGIVGJHh9A0pFS9FVtgGieWb1mAdAWKDt8hhUKxMHjY0L44OJPd+IR6fEChW2tyB7PGeHV8WXTAkmIWDw+gfMTSR7woD6ZcvT4AvItlMOQL9CPqXHAo9FSKaeBL5BvpeQ6LMMxYWpPHt9AgxWKo57B3DI1jv0C+QqO33v92Nifr4BfpqIeX2C/+AFUZgWu4CP7eiZQz+HiMH4rjIfV4wOYbxa/07/dM7g+Q381NKFn9V7hM5y3OvYj4PezeC7DgJN5RK7ZpzpMLAWKFp0Ff0VxAC12vifdjCtwRpTiHZoubXe7ietwiy11u20Oig/JVhhZIvZuwvxKQBtMZr1QzREpckTsbabU2ZDczkFJ+hxMjIoc0TLZFr8isNeqeh+oePYGb4gKPN+ctSuq3T6gRCnMrTjj0+wi19yTNodHs85eHq4V0ny73aZsDAe1pvpRl+a74TZdFPvgBSZbfewC524l6eFYO3Vu2A94AkwZvL9VGTrp6nXA0KlXf+cFaBGbt6zmMQFcx+dkhG8fT+vSBWv4Tz1v7+Pt4+Mt/bLb7y9P8ev//dvbli7vdnn8Bw==);lineShape=1;strokeColor=default;" parent="1" vertex="1">
                    <mxGeometry x="270.83789940258134" y="392.4827827762688" width="46.60324600111635" height="76.52002518522482" as="geometry"/>
                </mxCell>
                <mxCell id="62" value="" style="shape=stencil(lVjLctswDPwaXTEgwec5Tf8jM3FqT9044zh9/H2hqpRFSF5PboqDFcHFLghqkIf3/dPbbvD8fjmfvu9+HZ4v+0G+DN4fXve78+GiT4M8DvLwcjrvvp1PH6/P099vT2Pk+PTj9HN8w+8JVzNxGVGe/0y/BAry74evU/zx8LqMZ8q+i48U8u344khqF5/Ig/hUqDgTH/l2fBQqYuLF346XQj6Y/DPIR+mIycQ7EO8i+djFK8EO8EmpD3dMqQJ+qPbpO30/qFei1JdL80H8F+I+HyUsg3w03dADoiMXAcBTNQXzjbJtQKDSKyg78kASThXQc5TnXW0DMoW+xmVOchtQyBlAglVTQOldpj4qAKBVMitUTww2LaHJcgEIYIXgKVYLKAk4zTUhzAAhASklbk5cAFKB3g+GpdBo2ARkJvYWEEBKqhyJFoAqnT1Jr9Ya4R4UUMwK2sDuAEzhMsU7KRlAgS1bNx36llorNNBIa7WAjJpMoWi7GEO5Ju1j0S5RgUdTtB5VQAKNNQXyYgEwJbEnlfLqkFyFuO8zWjkP5KqA/7QvtCFoD9IcuVBfQCyFFa2BMgJoAskCoKmzPYBGjwYAqBRXHvWgMan61isg9akhzJk1sgRoVUAOtg7oUFRANXvQSoMpI6+ba4Gnono0r0xdceuLKz+gPqN14GwBFRUu225819SfRkT1MK92AUo3DhcrVyNig6PqLLHomBOtNVtABDzphGjPxdzW3B4GpE20C72ivqEzljN6dXig4dVAk/BAw21WmAECx2gFcL+CzlhoTi/22qCKx3NuNteA2bTbdbYUqVIimsis8KS2i9Bm/Kzj5RwN9st20NCLQQUtRrtub50MzbmeogVKSN9vrkk6QwON6tQfjZXbReXmNazvLnhc1YlB7PuRZwq3g/IaL4CfUqztGZ6D44nBJp4Bn9eDexEP9jueF6t4IDftOcZfTB7HF5s/kr92TTPsOJx/te938HaxaPwLQaB7sB5GxcRHVIDa6nk1ACS02oJJm1lvEZqqiUfz6djze4MFeKv99HeXu/H6cP3I83I4HqdvRMv/249C+tP0QUke/wI=);lineShape=1;strokeColor=default;" parent="1" vertex="1">
                    <mxGeometry x="328.22120197582103" y="404.0492152882971" width="48.48297774660483" height="81.68174515445571" as="geometry"/>
                </mxCell>
                <mxCell id="63" value="" style="shape=stencil(lZbLbhsxDEW/ZrYERepBrdP0PwLEqY26duC4r78vp4OZhmp8g+wmMk9EkfdSmvTuZf/wvJuEX66X89fdz8PjdT/pp0nkcNrvLoerf016P+nd0/my+3I5fz89Ln8/P8yR89e384/5P/xauFTIbKaEfy8rTMx/Fz4v8cfD6VV8UeIS4pOSpNuANeIWASPV20BPpDUAktY93wYKJY1Ao1YBYOsRV0DfATrVmFLBVXKgx5SqUuowJYsptUK9AaCSxr5ZpY52EOoSAK8bA8CMWo9Ap5wBkCmnESigrMYkZUwpA6BVarGsri60Q8skOZa1UjUAuLz/axzqgwMSAZcG0pKnZLFKapSBH1qjGgExEpCSuYHioWVbeRso4w6zRUGVzOUd/ZA6LGvXERA3rQCgUYqAZgz0UUu5UANTIzGPU6C44tEh+jq3NjElMjSYGmm0nCkV5FE/Y5yV7lqYEq+zdwNcTCAlb7UNnWM8ymaifYhwAwyjyW2NTuE3CMek5ksD3CkutthrHz0NWKhSGcYGwxtFxyLNLkdaGi1dPR8gVqYyKC+v/rgRPyg15/VEN+KHAeDmYTAA0piPuBBBh3Uc9P6KEKDr7Srb6o+9TBxto1ANSUjjRcW4Wx988rwf7x//3ldPh+NxeZ69/n18j/nS8pbT+z8=);lineShape=1;strokeColor=default;" parent="1" vertex="1">
                    <mxGeometry x="276.8562915096827" y="432.05751380803963" width="14.569370286020224" height="4.823538975864829" as="geometry"/>
                </mxCell>
                <mxCell id="64" value="" style="shape=stencil(lVbbUuMwDP2avGpsyddnFv6DGco2Q7dlSmGXv0fZTEqspIfJm+PoWLejSyd3b/vH113H7u1yPr3s/vZPl30nvzrm/rjfnfuLnjq57+Tu+XTe/T6f3o9P4/fr4yA5nP6cPoYX/o24xFR5QLH7HG8CBff/4mGUP/THuXwgHxp5Hyh5CCi5AYgjrgBQqNTWojo9sQoonnJrUhZy8TagVqotoEbKQIMCYutDzeRAlGqi6FtAmeK2DvDkjIZKrgCnhQpbQObbgBwptgDvHHQiqY/BqijApliJF04IAmie2IYpgsyFsshcpgAyF66/r4A0GXlLQ46WGy4BH5hSagFCFWiIqqFYgAeZS2nhA1MEFZQDVbGAAMKqZLKJY8qI344SWx8EdIEh6q4FBGJUEJXCokYFhHXG5lmqUZiUOsUUaZ5Ssw7QPC2quoAwlUTStrKhk4BE5EKyKLkKAEkrUhYAQNfkpy4xNwlEKYap5udOo4LQPIgNa0FFnRcVlCiBPGwGcLZ01QmBmqVnktYH9YoBv6Nlhg65CBQsuPrDFPXEW6Y0Tw3las7Eq/WA2p7HUFybcMsITwEQQl2L7fNu0rduvCcvRp7B+2qP2PfRXBMd9nWDfNAp5TfYo+tKchv8jUqevCGeOmZNV8Hp0hXPFCRmw+aV8Ed5PXzvn8/94TCur/P/dl/Vq3HXlfsv);lineShape=1;strokeColor=default;" parent="1" vertex="1">
                    <mxGeometry x="288.76763080094076" y="415.6944820867543" width="6.093143944286995" height="42.40645539504291" as="geometry"/>
                </mxCell>
                <mxCell id="65" value="" style="shape=stencil(rVbbbtswDP0avx5QpEVKz133HwWaLsGypEjTXf5+MjynppIQG7A3WeaRxMPDyyAPb9un183A9HY+Hb9ufuyez9tBPg3Mu8N2c9qd22qQx0EeXo6nzZfT8f3wPH+/Pk2W0+rb8ft0ws8ZVytMJhTTr3knJaR55/MM2O8OK0DJUHUAYUgKAIQxOUBOyHofYBUyOoAxqAQ3JIzVASph+gxuyB1AIBQApHe6KsjuA3RcOLkACjjfB2RGZg+o0IBWaT50gSMCBU6wQmt/hQS8pgzJHmAogTYURt4+L5G5fQG0O5+hQdwI5kktjYSII1TvcFHkgKFJ+j7MRVACB5oHo5dq02INtC0CKx5AqIHLo6JYDyjBDbnFVPsnlYAkrcsDVk5rIFUzjLmnNQUstQekzoeKFCU0XSmVwcEN1rKxU1IGB5FWg11JO0q33JLHR7olDwdxGJv4qAfUwGm5xHUFsEitBcVrqdWYP3K8CahLUVwVMQnsedH+qkpGHBFyx+ll5z/Zk2fUUpg7rfF4+0yhihSjlynH5SVVUJc54KApTPXOl+wm2+D86UFec01TwfmtuHTli2OJpp4gWgrm7Ry4Ssu4zSr1fTluUEa9QGlpQHcHBW+fwNHoYgsdH/xEem5yzz7BxmWUuW1vqL4/aawfulJ0gQUB+Odh7S8AbfExG77s9vt5tFz/72fJtjXPofL4Gw==);lineShape=1;strokeColor=default;" parent="1" vertex="1">
                    <mxGeometry x="364.2797671639654" y="438.73616312432466" width="5.3471049411727485" height="22.492544703280494" as="geometry"/>
                </mxCell>
                <mxCell id="66" value="" style="shape=stencil(fZbdcgIhDIWfZm8zQAg/17Z9j85U606tdqz9e/tmZ0c0uJ47xP0I5JwEBl59bp8/1kNwn6fj4W39M76ctgM/DCGM++36OJ50NPDjwKvN4bh+PR6+9i/z74/n6ctp9H74nlb4nbmSKZeJCu5vngmZ6jzzNAO7cX8FVKEsBuBKrgKg9oAE8gkCbLeUhEoEQKSUDZDLeWYRKIl8MEDRmHwfyBrBG6Amyu4+kDxxMoB3jhwgYu7TVAsVkFcWCs4CTBEoF4RctKeOxHIf8IXYpikHikAIf+MNUW94AGSSaoAoFIE3AlOyeWU+p2E5S9yfQZcQILVuQOwZdJNoS9Ls3wA5u2XZTIHECqeJ9kDpSaauRiNVcAY1QhdBzeLBli5WazpkSsBLV25uRaqWRyFawTQzRRIQYirJzq5atkBqLfouwqUxLBepthWb10vrWZY6UOAeyKCCtDV625mm9gmUC4Wc3VLJMMIE1BsA2FW9JraVlQB7n3c9oMKhCLEvIM1zBPZ25/umNQ1tVEC2G+fFCC8g398O2hNQuQlVu752DBfA+q0ptnqO5JFmeuIuo9DY7KjY71UxdJV4EntifPWorW++R/dC4t7V3DlIB5cHx2bc7eb3yvX//QNFp+bHDT/+Aw==);lineShape=1;strokeColor=default;" parent="1" vertex="1">
                    <mxGeometry x="364.32748380364785" y="427.3538688620446" width="5.497105614253595" height="5.48851319571494" as="geometry"/>
                </mxCell>
                <mxCell id="67" value="" style="shape=stencil(lVjZctswDPwav2JIggf4nKb/kZk4tadunHHc6+8L1aEsgvK6fXMkbIhrF6A2/PC+e3rbboJ7P5+OX7c/98/n3YY/bULYv+62p/1Zf234ccMPL8fT9svp+P31+fL329NkOf36dvwx/YdfF5xnSmlCBff74wnF/PfB54v9Yf+6tK/kXWefKPrb9vqaY2cvFMtte2Zi44+nxLcB0ZMYQKQAAMmR9BH4TFkAoFKpPWBOwiogF0q5A9xJaonkDSCSA1kV117PACGXACAS9zFwoAzqIGJd4tLytgqongp3gMhUQQw12sJpZT56ZR1QiE3rFZilKlT7GDKTgErXStLHUByVANjgtBC9T6WQRz4N/BEmj3zSqEMPEGJ0AlPsS1211CCvkqiUHpDJg2Yqqb2eAUKhAkKw7T5NA1KB5G3lFplel4FAodgjKjhCCVPFBoFIGrTZ+kJoaQRErdKXvQWg3lDSVzcUAp0QhxgS1D51SUwMsbXXraCNfGt7JZTWOpSayYG0suqGOSE0Fq4DBrFUABIazsRiXULtytIYuQBUwCDWoItNawGkVoCtQ4JCo4BoXMJDS2OIppd0KqEY5v+3JDVyKVLyFoB0RieOkT4FFNxLJVhAQnwolAcAZFy28j3JLea0S7YOCeiSUlRMtyZYh2mfMoDYdORWDFa+GU5qVb6cLSAAALvW/UuK3lniBooKmCichubTqYhEILXt5R8BulvY1ohwBGU3xKDCgwB1qLROYkAgCc2BGeCaFq4DdBqYXbpAMZ42hb5b9cwKKi2Dek/rDDqhWpd0Y6qAQOqxWaZzhBcIGfigW5/gtAYDuLN9z8vLvLkmuIgWtpVWeU7ghDyvIjNAZQGckLPdZiYOghOSNAbPF4KM+eDtQAl4XdcFy6yV06UGy725EHhpT9Z1SVWod8knOOP07ip9lnyAu0am2HuEJ5xrCZn7onXWDfPQk42hbg83B6UmyI5rPLyaB5B9VRJ7rUeTU5cwcyeGN6tg904HZ1psI/JqjuZNtuuXa5v3Oh1b3hbm6KJK2Zqjy473bQW/2sMPJIFSMPZIcv/7A8xde/1x/drzsj8cLh+Llu/t1yF9dPmyxI9/AA==);lineShape=1;strokeColor=default;" parent="1" vertex="1">
                    <mxGeometry x="379.8683237598632" y="395.46475161765113" width="33.72384169015571" height="84.88258679044948" as="geometry"/>
                </mxCell>
                <mxCell id="68" value="" style="shape=stencil(rVbZbhsxDPyafSVEUedzmv5HgDj1oq4dOO719+V2IcVUdwct0Le1zJFIzvCY5OHt+PR6mLx7u10vnw/f5+fbcZIPk/fz+Xi4zjf9muRxkoeXy/Xw6Xr5en5ef78+LZbL15fLt+WGHyuuekphQXn3cz2RQMH/Pvm4Ak7z+Q6QE4k3gMDEvA9IQiIWUMjVfUAIlKsBJE8MXBIhtjHkQCXuA7hQyAZQ+5vbgEjRBl1Li2ob4FuIDcDOkXP7iELRxlArJRB0JB+tfSYPPPIUk7UXyIKjbP0pmRKguUfX7ZkE3h+sfY7kMsgoVbaiqCTAn0BiKU5KMbDPI8OJKSfgD5MbAJoyFEDYeKEgDWnC4xhCCYBi5aCMOQqAA01qjCMJvkBAtTEoy0gVCmBb/CqjAmTNlbwtHNWpR7WcKA61nEkQQO8bKkErDRBXm27u7CtIkjZIq2ztFR7QJqNStRklYM/ttp7S2mjcqTQeOBOKsJLHbprbyY4/Q7yZcbumYPOfUtPtf7FXRZRh4KjmUBmUJsk+A/UFkNGgFFuXtL0yeCFmqrbQdKIgTWgKixVdgTEX/dvaO4pg2lRHEgZ7NJ2WNSGP9wMNqYSLtffNwW175cyKSLcQZF9ajXfRtTawba+N0MbLXbbbInJ/DDSlDA20LYQ2FpRUdcoKVbWeAMvvS0cHZJym1EZSV7aDvaL2CdMBnioQ6j/vj38B0I/3dfVlPp3Wbff+/3G91aN1NZbHXw==);lineShape=1;strokeColor=default;" parent="1" vertex="1">
                    <mxGeometry x="79.85973374998605" y="185.0321845305661" width="34.20823633811761" height="19.088111963042575" as="geometry"/>
                </mxCell>
                <mxCell id="69" value="" style="shape=stencil(lVfbUuMwDP2avGps2fLlGdj/YIayzVBappS9/P0qm3GLleQwvIWgU0tH50jOEO7e949vu4Hd++V8etn9Hp8u+yHcD8zjcb87jxd9GsLDEO6eT+fdz/Pp4/g0//32OEVOT6+nX9Mv/Jlx7CjFCcXu7/wmUir/X/yY4w/j8XO8UOYu3jP5sA0IgWLqAMyUeBsQmaTPKOgJACCeqinBEQNAYnKhB1RyaRuQPfnaAUQBeRtQHIWepZTJu21AFXL9CblSqgBQ2u81QFFaBQAqZekBiRilVKn0jSuVKpCGphR7WmsgQTUIpb6GmnANvmnzCihUIuhDbn29AmoTyzqAiaMFFCDvnK0fNCXxABCoZls0MpCKL5iiGdaQna1BG8dArQpIRhpCAqSR1aJ9DcqbQykJlb7TKm8GRauBnO8BudGwDohW3jlBAyknEuwJDBqnYi49rblQRQbKiz54EmSgSsHQGptYVgHeKU1mCpSmx60jnFEfN9euA9LCcroBME1u4VHY6mI30DSqwAklNEdeV9CNh3X5VfKLMYDmt+rVTFdtpkMmVYD/DmDaQWa6ClSTqOd6gAocjeModsulgjd1prLYcgWwxMVaSBxlUIOvFPsTog430Gq9W5jZF3wbPessNeVcpVGxg8j3U2M6ESTk2iC9Sa95diPe+rNdDDbCzQDQFQ1mmJLXZx/hjGQqPZkMfRZtuIel5ubyFu4ool1OuZpwZGHtS2QbDzaO18mZTDwSjtf0k6lWwJVQdWWuhNwOXOf+u/fsL+P14Xapfx4Ph/mb4PP/7UeAvpo/IMLDPw==);lineShape=1;strokeColor=default;" parent="1" vertex="1">
                    <mxGeometry x="152.40267921470956" y="180.42470099593203" width="30.749462281049684" height="39.24668640394613" as="geometry"/>
                </mxCell>
                <mxCell id="70" value="" style="shape=stencil(7VjLbhsxDPwaXwk9Kemcpv8RIE5jNI0DJ+nj7ztbQ5sV1ztBjgVy84OzEsnhaFa7ePV8f/O03wX3/HI6ft//Oty+3O/il10Ih8f7/enwgk+7eL2LV3fH0/7b6fj6eHv+/nQzRU6ffhx/Tk/4fcYlCX4CBffn/INKSv9++HoOfzg8LsK9lxqHeDzAbccHL0mH+CBKnh+j+DEeD6jb8UnF1SHeSdHt+FxFs4kPeTteqxRn4h3Jt1SZ/hvqU9t2fMV2y5hvkkIKVLKENgCiF0cAmsWNgIQ9RlKiIHVMWVUaWSGhRSMnapBMmhaTpHFLLUgjXQArwsiKVsUxQJBoVmjiSNIo4hqgpHHR2T54x6kRmvhql2B1DVW8t4DsCaCIT7ZMjEwY9mgARbQQQO7PmwF4BJk3AKJJOkljVVrxu8X3VkjjBLVZo7YAzZTVSWJl1c7mmd9oJanSxO9xS1WlEkAKVlUrdJDNaLYyWUqfqS0dy+MKBcpDJqh6KSNAE6U3+mpkI5euhZcBkO6xD5lXCdwMya7giM6A/VEtoJJOY77sCo0n3frz5iq5XujL5+ebSMyIwMvUpIwDobETeDMJs0Km/EaZzMipUv1GIwz7FK1hAIxctIBE2AcyWfah1UQFIBJabA6eATBy41CD35VtKXRjtOgDsw4AGOlTL5moMQAmabCPmQckbQ5e2BvmllDWNLoTDERiVcqiZqi1t3JrqGtaAViVqp0HbIkdcgC0apPOLAcc5GrL2lhZm10BjVOWQ+tH2oIa7MwCIK3ElVkBJK1j40DvwACl12QxQJ4p2UcBNVlqFLwKEPkuYP9ovXHGZAJAX705RmcLdfkYzZ0588me6QB9+spPX/kf+cqpccYmJmoFIgZilA3MaCbsw+u0X4lrI+5kEutxqJOjzhW65UZAiJSt6zdwH/udxeUtYSKLBTjmvtWeu3gHZznA33uzJfCXCNN06TEm7Qu3idGaaV+pc1XLjOCo10jW/SBeyTREmwDiIxHKYJXYN3qEektU5MuIOr+8LArKLjVc/3fRMZbvyqWjI43HG86Fd/ZjzKR31HJ7e83V+q3ORngzr4dSaXedcRc02Q/eGb4bjg9v15N3h4eH8+3m8n97nYmfzleh8fov);lineShape=1;strokeColor=default;" parent="1" vertex="1">
                    <mxGeometry x="398.14092830594313" y="159.30777262806112" width="56.290327289529365" height="40.630943295449676" as="geometry"/>
                </mxCell>
                <mxCell id="71" value="" style="shape=stencil(lVbLbhsxDPyavQ4kUg/qnKb/ESBObdS1A8d9/X25XWhjylmive1KHEkczlCa+OFt//S6myi8XS/nr7ufh+frfuJPE9HhtN9dDlf9mvhx4oeX82X35XL+fnpe/l+f5sj569v5x7zCrwUXI4LMKAq/lxFmtPB35PMCOB5ONwCOfXoFEDJtA1IDswFQReZtQCkQu0PUkboNkATJFgBOTrygFBMfEJyUGyFFmwGoOPEZlUx8hTQnXkA8JkziABpKswcqyA5DCmiWIa4o3g6CVg0gCZLDaStjDXJFdarcGGKTLgnZO1IAWVaLuGWQApYRwE4dhFDTeKTm7FDbKKQsXewfAyrSQGtDdI5UC9LgNkF2tFpXIdy4jR1a9UjNJq3iax5LoZPYAaoMx//CKFYZ5GpV6lg2daenvNgZfHd/dM7T0miejOJ5p3bC1/W5+3XLbGwZJXb7Swxr/7ltwr6fk/VCSj6g9hzXpJPbU5WlNriNUDxaI5L1QqmuLmZAvQNER6nxTngJwVFqjiC7g3bm4PhZb7JhB+2D4pRab89sk76p5cfqHruelpKcpPUisObRRpsdN3BvWGs8IebteJ21ypu7pnP+gGop1R7ITpVDJ3yNjygOo3dOKNx77EZ8sfE5Q5x2FyGDcQTV4YfH9RO5F2ce19d+HZz66n1h+WSVqK+4/3uv/QNAP96fhy+H43F5Xd7Oj89JHVqeovz4Bw==);lineShape=1;strokeColor=default;" parent="1" vertex="1">
                    <mxGeometry x="491.13878444798434" y="167.58193073743882" width="26.252700987449945" height="9.03503311736874" as="geometry"/>
                </mxCell>
                <mxCell id="72" value="" style="shape=stencil(rVbLctswDPwaXTEkAD5wTtP/yEycWlPXzjhO2/x9oCpMTYhGL71JFFdcLBYAJ7p72T887yYML5fz6fvu1/x42U/0ZUKcj/vdeb7o00T3E909nc67b+fT6/FxfX9+WHYuTz9OP5c//F5xWUDSgsLw9rECJH8Wvq77D/Pxan+pUEu3nxAw3AbUChz7AwJEBxBDgBA6hBDkeBshArHnJAkSOoAE1HOSAljdICr2gArFoVQDsIlBICdH1wDSU7rSYYjIESjZIwrdBiRsn6+C+EjmEMAJhK1MyaHEEbLYRBTvBJXJnEBQswPATeYiiJM5Ls1sn4DQfjFWiYH6VFeB4MiaCbCnpG7xzFQQKllAdE6oCFEswC2IACg2Bs99okUfrKzRyYNaLdUegCBOphdvGmswVKfRKCVTELri2VsZo/GSn4dKQKZtSKvaceIYIlqAOLJmBt6c4AWdEjBZADqdTO1tS7S6XUMLyOZBc+8VUIBk8sBt5f8AdOJw7yVtbcFRKRKkPgbSVPJtwGagFMiORpvqSc2KY/6WDTf82BRQ+mixzZZxsNi4fg4Gl3wU2+VDa8pj9gUKm/3R8TRlO2z9McWafPt/dDqLTimy+z31kw5/NvqIo2fe8CG3wnK17Z2bYOP92hJy72b3QvXvC5g+/L29Pc2Hw3r5u/5ub3u6tN4U6f4d);lineShape=1;strokeColor=default;" parent="1" vertex="1">
                    <mxGeometry x="552.271374571937" y="142.96063153796467" width="7.2345356210434355" height="36.306179004272614" as="geometry"/>
                </mxCell>
                <mxCell id="73" value="" style="shape=stencil(lVbLctswDPwaXTEEwOc5Tf8jM3FqT10747ivvy9UDVMRsrftTZawBna5ADjpw9v+6XU3SXi7Xs6fd98Pz9f9pB8mkcNpv7scrvY06eOkDy/ny+7T5fz19Lz8fn2aI+enL+dv8z/8WHDcKIYZJeHn8kYpxN8vPi7xx8NpFa+ZOA7xItTKfUDKFMsAiImK3geUSrENgBIoAUBrJCOgKSyJQ6Awkm6JlGGKKiMgU24AUKmMrFuBNdn/tTQCGgUBgEipeEBBAKaaB8BKh5uI2ojZp6jgJKqJIh4gwE01UtYRUEkqAChp9rqGBACy0TVRxhmi4xBJga7GobgMSoxkzVTqCBDiDM9BnV2ZEnKfdE1WgAgytC0H7ga+DSid4opDAqTtXGvxKiVUUvN2tSIrOGkDNCdrhuabvensXXpP3SO9dWtBpBPFTQPBUSYbaxgrpJJ18CZDQx1X/Lw3QET9kEjEk85oCGifjCtZYQbtIv4jIMtmQ8S+lW4vLdNkPLho5wB6mo3i6FaxpgUdF/x+KHAEBOIxPPUC74S7dRWh7YLfuApbk/vXd66kgKr2tfS+RigC7WNfez08wNoLSXDhghYzZXbhaKPxZjBaPODKNvqri0dzlO2yk5w4DMo3n7HbyX2I3Y7/z9va3+Pt4c/V8OVwPC43y/V3f5W0V8s1VB9/AQ==);lineShape=1;strokeColor=default;" parent="1" vertex="1">
                    <mxGeometry x="439.0624857244459" y="263.6121370682896" width="24.217442066721315" height="48.397407064505494" as="geometry"/>
                </mxCell>
                <mxCell id="75" value="" style="shape=stencil(rVbbbtswDP0avxISKYnUc9f9R4Gmi7EsKdJ0l78fDU+bKcdsAuxNcXgk8vAcSgM9vO2fXncDhrfL+fR192N8vuwH+jQgjsf97jxedDXQ40APL6fz7sv59H58nn+/Pk2R0+rb6fu0w88ZVyPkMqEw/Jq/MKT5w+c5/jAeF/EiUNnEY4XM24CKIGgAmYFlGxBDgBAMohIQOkcIJJtTzUDOEbpfiBbAgF7VCbBLSYDTNoARaraACqVuA0qAZAELHq4ikqxo0iOcnKhAjX0RHgAFKPU0RacRSBClbwR6gAi1A+gWTiMwgVi5qoCjV7Tq28pPKpCj1xSbEv4ClOi8DcgqJqs+YaDotDoDhx7gscQMQj1AnBM0406uk20d9Wmb2LJUAxSnD5PUOvGhqyUFJFtDTcBODZNyOvEVKE7jlJPOQSpvcgzE6oeVgZJTQ0ktgQWgOillhFB6wJ9WXhdfaHNrAQievANIVzS7LKmB0sqi4szKyaJd46id+X8AUR1nac3iTmOEXE38B1fQ6j7xr7gIZPPPrhVWOiVXE1pttlMYW0eux1dgy47S5fVLubCKCM15W5Lr5p1/7eTYTHVbfMH+rvXz4Qhc76hXQpvOt/Eppb0lbuuXDkK8Rw73Pqg+jtfFv9fby3g4zI+/5f/9a08/zS9FevwN);lineShape=1;strokeColor=default;" parent="1" vertex="1">
                    <mxGeometry x="535.5821596754615" y="422.2442279330461" width="5.573413641992339" height="33.96130780077127" as="geometry"/>
                </mxCell>
                <mxCell id="76" value="" style="shape=stencil(lVbLbuMwDPwaXwmJ1PPcdv+jQNON0TQp0nQff7/MGnIt2pmiN0fihOJwONIgd+/7x7fdwO79cj697H6PT5f9IPcD83jc787jRb8GeRjk7vl03v08nz6OT9Pvt8dr5PXr9fTr+g9/JlzM5PwVxe7vtBKo8v+FH1P8YTwu4z2F0sUzUywAkCmbBIFSvg3ITCV2gJQpuNuAWim7DlAjScCAPkNNlBBgPsAMyFRADZUbiTOgUPW3ASVRTj2gwiPlSjFbQK2QVu9XALkNSJF8tICQQKd1e1V0AhlipCiW1ojEJ1R68WnjOAJAaCTOAJU3qkHVao4klIG8k6rVZJhXtgFrlpgYFJ1VGtUCHJiHEsjnVQYgvuo2MhQEiFTziiU8cVZL2Ga8c63GZauRCxQKphE6tWhGQxPnQq4RTFApTTrLgQD6LtonsQBUdQ52qBc8bKspk6x9Awg8+VUntCzQupgaKQtekZXpzHlzJHVXwOu3ARytWaYCb4hiXSDElnIzfqU9veMYcKS7/Xm0j+DvhaR3YmmWsM2PNT0mQbq2hqQ3NrBIr4PYC0LdAJxGt6s38QyGgFWhxcQjRYtYb9F4wH1wJGziBZAfEjlbL7oGo6PChk/Ej6rZTCRj9ad2qX6qAV04336wfRmvH5+vw+fxcJgel8t9+5rUpeklKg//AA==);lineShape=1;strokeColor=default;" parent="1" vertex="1">
                    <mxGeometry x="605.0701176536238" y="421.52647056560875" width="8.963004102967297" height="51.645403633222465" as="geometry"/>
                </mxCell>
            </root>
        </mxGraphModel>
    </diagram>
</mxfile>